<svg xmlns="http://www.w3.org/2000/svg" xmlns:xlink="http://www.w3.org/1999/xlink" width="0" height="0" style="display:none;"><symbol viewBox="0 0 24 24" id="pg-android">
	<path d="M17.1,10l1.7-2.9c0.1-0.3,0-0.6-0.2-0.8c-0.1-0.1-0.3-0.1-0.4,0c-0.1,0-0.3,0.1-0.3,0.2l-1.7,2.9
		c-1.3-0.5-2.7-0.8-4.1-0.8c-1.4,0-2.8,0.3-4.1,0.8L6.2,6.5C6.1,6.4,6,6.3,5.9,6.3c-0.1,0-0.3,0-0.4,0.1C5.2,6.5,5.1,6.8,5.2,7.1
		L6.9,10c-1.4,0.8-2.6,1.9-3.4,3.3c-0.9,1.4-1.4,2.9-1.5,4.5h20c-0.1-1.6-0.6-3.1-1.5-4.5C19.7,11.9,18.5,10.8,17.1,10z M7.5,15.2
		c-0.3,0-0.6-0.1-0.8-0.3c-0.2-0.2-0.3-0.5-0.3-0.8c0-0.3,0.1-0.6,0.3-0.8C6.9,13.1,7.2,13,7.5,13c0.3,0,0.6,0.1,0.8,0.3
		c0.2,0.2,0.3,0.5,0.3,0.8c0,0.3-0.1,0.6-0.3,0.8C8,15.1,7.8,15.2,7.5,15.2z M16.5,15.2c-0.3,0-0.6-0.1-0.8-0.3
		c-0.2-0.2-0.3-0.5-0.3-0.8c0-0.3,0.1-0.6,0.3-0.8c0.2-0.2,0.5-0.3,0.8-0.3s0.6,0.1,0.8,0.3c0.2,0.2,0.3,0.5,0.3,0.8
		c0,0.3-0.1,0.6-0.3,0.8C17.1,15.1,16.8,15.2,16.5,15.2z"></path>
</symbol><symbol viewBox="0 0 24 24" id="pg-arrow-left-2">
    <path d="M6.7,18.6l1.8-1.9l-3.6-3.5l19.1,0l0-2.6l-19,0l3.4-3.4L6.6,5.4L0,12L6.7,18.6L6.7,18.6z"></path>
</symbol><symbol viewBox="0 0 24 24" id="pg-arrow-left">
<path d="M9.56945 18.8201C9.37945 18.8201 9.18945 18.7501 9.03945 18.6001L2.96945 12.5301C2.67945 12.2401 2.67945 11.7601 2.96945 11.4701L9.03945 5.40012C9.32945 5.11012 9.80945 5.11012 10.0995 5.40012C10.3895 5.69012 10.3895 6.17012 10.0995 6.46012L4.55945 12.0001L10.0995 17.5401C10.3895 17.8301 10.3895 18.3101 10.0995 18.6001C9.95945 18.7501 9.75945 18.8201 9.56945 18.8201Z" fill="#292D32"></path>
<path d="M20.4999 12.75H3.66992C3.25992 12.75 2.91992 12.41 2.91992 12C2.91992 11.59 3.25992 11.25 3.66992 11.25H20.4999C20.9099 11.25 21.2499 11.59 21.2499 12C21.2499 12.41 20.9099 12.75 20.4999 12.75Z" fill="#292D32"></path>
</symbol><symbol viewBox="0 0 24 24" id="pg-b-star">
<path class="st0" d="M18.9,22.6L12,19.2l-6.9,3.4L6.2,15L0.9,9.5l7.5-1.3L12,1.4l3.6,6.8l7.5,1.3L17.8,15L18.9,22.6z"></path>
</symbol><symbol id="pg-call-calling"><path stroke="#EC3237" stroke-miterlimit="10" stroke-width="1.5" d="M2.707 24.44c0 .48.106.973.333 1.453s.52.933.907 1.36c.653.72 1.373 1.24 2.186 1.573.8.333 1.667.507 2.6.507 1.36 0 2.814-.32 4.347-.974s3.067-1.533 4.587-2.64a38 38 0 0 0 4.373-3.733 38 38 0 0 0 3.72-4.36c1.093-1.52 1.973-3.04 2.613-4.547q.96-2.28.96-4.36c0-.906-.16-1.773-.48-2.573-.32-.813-.826-1.56-1.533-2.227-.853-.84-1.787-1.253-2.773-1.253-.374 0-.747.08-1.08.24-.347.16-.654.4-.894.747l-3.093 4.36c-.24.333-.413.64-.533.933-.12.28-.187.56-.187.813 0 .32.093.64.28.947.173.307.427.627.747.947l1.013 1.053c.147.147.213.32.213.533 0 .107-.013.2-.04.307-.04.107-.08.187-.106.267-.24.44-.654 1.013-1.24 1.706-.6.694-1.24 1.4-1.934 2.107a40 40 0 0 1-2.12 1.96c-.693.587-1.266.987-1.72 1.227-.066.026-.146.066-.24.106a.9.9 0 0 1-.333.054c-.227 0-.4-.08-.547-.227l-1.013-1c-.333-.333-.653-.587-.96-.747a1.8 1.8 0 0 0-.947-.28c-.253 0-.52.054-.813.174s-.6.293-.933.52l-4.414 3.133c-.346.24-.586.52-.733.853a2.7 2.7 0 0 0-.213 1.04Z"></path><path stroke="#EC3237" stroke-linecap="round" stroke-linejoin="round" stroke-width="1.5" d="M7.333 11.999c0-.8.627-2.027 1.56-3.027.854-.92 1.987-1.64 3.107-1.64M2.667 12A9.326 9.326 0 0 1 12 2.665"></path></symbol><symbol viewBox="0 0 24 24" id="pg-comments">
    <path d="M8.5 19H8C4 19 2 18 2 13V8C2 4 4 2 8 2H16C20 2 22 4 22 8V13C22 17 20 19 16 19H15.5C15.19 19 14.89 19.15 14.7 19.4L13.2 21.4C12.54 22.28 11.46 22.28 10.8 21.4L9.3 19.4C9.14 19.18 8.77 19 8.5 19Z" stroke="#9A9A9A" stroke-width="1.5" stroke-miterlimit="10" stroke-linecap="round" stroke-linejoin="round"></path>
    <path d="M7 8H17" stroke="#9A9A9A" stroke-width="1.5" stroke-linecap="round" stroke-linejoin="round"></path>
    <path d="M7 13H13" stroke="#9A9A9A" stroke-width="1.5" stroke-linecap="round" stroke-linejoin="round"></path>
</symbol><symbol viewBox="0 0 24 24" id="pg-credit-card">
    <path id="Vector" class="st0" d="M6,15h3.6c0.3,0,0.6-0.1,0.8-0.4c0.2-0.2,0.4-0.5,0.4-0.8c0-0.3-0.1-0.6-0.4-0.8
		c-0.2-0.2-0.5-0.4-0.8-0.4H6c-0.3,0-0.6,0.1-0.8,0.4c-0.2,0.2-0.4,0.5-0.4,0.8c0,0.3,0.1,0.6,0.4,0.8C5.4,14.9,5.7,15,6,15z
		 M20.4,3H3.6c-1,0-1.9,0.4-2.5,1.1C0.4,4.7,0,5.6,0,6.6v10.8c0,1,0.4,1.9,1.1,2.5C1.7,20.6,2.6,21,3.6,21h16.8c1,0,1.9-0.4,2.5-1.1
		c0.7-0.7,1.1-1.6,1.1-2.5V6.6c0-1-0.4-1.9-1.1-2.5C22.3,3.4,21.4,3,20.4,3z M21.6,17.4c0,0.3-0.1,0.6-0.4,0.8
		c-0.2,0.2-0.5,0.4-0.8,0.4H3.6c-0.3,0-0.6-0.1-0.8-0.4c-0.2-0.2-0.4-0.5-0.4-0.8v-7.2h19.2V17.4z M21.6,7.8H2.4V6.6
		c0-0.3,0.1-0.6,0.4-0.8C3,5.5,3.3,5.4,3.6,5.4h16.8c0.3,0,0.6,0.1,0.8,0.4c0.2,0.2,0.4,0.5,0.4,0.8V7.8z"></path>
</symbol><symbol viewBox="0 0 24 24" id="pg-currency-irt">
<g>
	<path id="Vector" class="st0" d="M3,10.4c0.5,0,0.9-0.1,1.2-0.2C4.5,10,4.8,9.8,5.1,9.6C5.3,9.3,5.5,9,5.6,8.7
		c0.1-0.3,0.2-0.7,0.2-1H4.3c-0.5,0-1-0.1-1.3-0.2C2.6,7.4,2.3,7.2,2.1,7C1.9,6.8,1.8,6.5,1.7,6.2C1.6,5.9,1.6,5.5,1.6,5.1
		c0-0.4,0.1-0.8,0.2-1.1C1.9,3.7,2,3.3,2.3,3.1c0.2-0.3,0.5-0.5,0.8-0.6c0.3-0.2,0.7-0.3,1.1-0.3c0.3,0,0.7,0.1,1,0.2
		c0.3,0.1,0.6,0.3,0.8,0.6c0.2,0.2,0.4,0.6,0.6,1c0.1,0.4,0.2,0.9,0.2,1.4v1.3h1.5c0.1,0,0.2,0,0.3,0.1c0.1,0.1,0.1,0.2,0.1,0.4
		c0,0.2,0,0.3-0.1,0.4c0,0.1-0.1,0.1-0.3,0.1H6.8c0,0.5-0.1,1-0.3,1.5C6.3,9.6,6.1,10,5.7,10.3C5.4,10.7,5,11,4.6,11.2
		c-0.5,0.2-1,0.3-1.5,0.3H1.4l-0.1-1.1H3z M2.6,5.1c0,0.3,0,0.5,0.1,0.7c0.1,0.2,0.2,0.3,0.3,0.5c0.1,0.1,0.3,0.2,0.6,0.3
		c0.2,0.1,0.5,0.1,0.9,0.1h1.4V5.4c0-0.8-0.2-1.3-0.5-1.7C5.1,3.4,4.7,3.2,4.1,3.2C3.6,3.2,3.3,3.4,3,3.7C2.7,4.1,2.6,4.5,2.6,5.1z
		 M11,6.6c0.1,0,0.2,0,0.3,0.1c0.1,0.1,0.1,0.2,0.1,0.4c0,0.2,0,0.3-0.1,0.4c0,0.1-0.1,0.1-0.3,0.1H8.4c-0.1,0-0.2,0-0.3-0.1
		C8,7.5,8,7.3,8,7.1C8,7,8,6.8,8.1,6.7c0-0.1,0.1-0.1,0.3-0.1H11z M13.6,6.6c0.1,0,0.2,0,0.3,0.1c0.1,0.1,0.1,0.2,0.1,0.4
		c0,0.2,0,0.3-0.1,0.4c0,0.1-0.1,0.1-0.3,0.1H11c-0.1,0-0.2,0-0.3-0.1c-0.1-0.1-0.1-0.2-0.1-0.4c0-0.2,0-0.3,0.1-0.4
		c0-0.1,0.1-0.1,0.3-0.1H13.6z M16.2,6.6c0.1,0,0.2,0,0.3,0.1c0.1,0.1,0.1,0.2,0.1,0.4c0,0.2,0,0.3-0.1,0.4c0,0.1-0.1,0.1-0.3,0.1
		h-2.6c-0.1,0-0.2,0-0.3-0.1c-0.1-0.1-0.1-0.2-0.1-0.4c0-0.2,0-0.3,0.1-0.4c0-0.1,0.1-0.1,0.3-0.1H16.2z M18.8,6.6
		c0.1,0,0.2,0,0.3,0.1c0.1,0.1,0.1,0.2,0.1,0.4c0,0.2,0,0.3-0.1,0.4c0,0.1-0.1,0.1-0.3,0.1h-2.6c-0.1,0-0.2,0-0.3-0.1
		c-0.1-0.1-0.1-0.2-0.1-0.4c0-0.2,0-0.3,0.1-0.4c0-0.1,0.1-0.1,0.3-0.1H18.8z M20.2,6.6c0.4,0,0.7-0.1,1-0.3
		c0.3-0.2,0.4-0.5,0.4-0.9V3.2h1v2.2c0,0.7-0.2,1.3-0.6,1.7c-0.4,0.4-1,0.6-1.7,0.6h-1.5c-0.1,0-0.2,0-0.3-0.1
		c-0.1-0.1-0.1-0.2-0.1-0.4c0-0.2,0-0.3,0.1-0.4c0-0.1,0.1-0.1,0.3-0.1H20.2z M22.7,1.1h-1.3V0h1.3V1.1z M20.7,1.1h-1.3V0h1.3V1.1z
		 M10,19.8c0,0.6-0.1,1.1-0.3,1.6c-0.2,0.5-0.4,0.9-0.8,1.3c-0.3,0.4-0.7,0.7-1.2,0.9c-0.5,0.2-1,0.3-1.6,0.3H5.2
		c-1.2,0-2.1-0.4-2.7-1.1c-0.7-0.7-1-1.7-1-3v-2.8h1v2.7c0,0.5,0.1,0.9,0.2,1.2c0.1,0.4,0.3,0.7,0.5,0.9c0.2,0.3,0.5,0.5,0.9,0.6
		c0.4,0.1,0.8,0.2,1.3,0.2H6c0.5,0,0.9-0.1,1.3-0.3C7.7,22.5,8,22.3,8.2,22c0.3-0.3,0.4-0.6,0.6-1C8.9,20.7,9,20.3,9,19.9v-4.2h1
		V19.8z M6.2,15.3H4.9v-1.1h1.3V15.3z M14,20.2c-0.3,0-0.5,0-0.8-0.1c-0.3-0.1-0.5-0.2-0.7-0.4c-0.2-0.2-0.3-0.4-0.5-0.7
		C12,18.6,12,18.2,12,17.7v-7.3h1v7.1c0,0.4,0.1,0.8,0.3,1.1c0.2,0.3,0.5,0.4,1,0.4h0.3c0.2,0,0.3,0.2,0.3,0.5
		c0,0.4-0.1,0.6-0.3,0.6H14z M14.7,19.1c0.4,0,0.7-0.1,0.9-0.3c0.2-0.2,0.3-0.5,0.3-0.8v-0.6c0-0.9,0.2-1.6,0.7-2.1
		c0.5-0.5,1.1-0.8,2-0.8c0.4,0,0.8,0.1,1.1,0.2c0.3,0.1,0.6,0.3,0.8,0.6c0.2,0.3,0.4,0.6,0.5,0.9c0.1,0.3,0.2,0.7,0.2,1.1
		c0,0.9-0.2,1.6-0.7,2.1c-0.5,0.5-1.1,0.8-1.9,0.8c-0.4,0-0.8-0.1-1.2-0.2c-0.4-0.2-0.7-0.5-0.9-0.9c-0.1,0.2-0.2,0.4-0.3,0.6
		c-0.1,0.1-0.3,0.3-0.4,0.3c-0.1,0.1-0.3,0.1-0.5,0.2c-0.2,0-0.3,0-0.5,0h-0.3c-0.1,0-0.2,0-0.3-0.1c-0.1-0.1-0.1-0.2-0.1-0.4
		c0-0.2,0-0.3,0.1-0.4c0-0.1,0.1-0.1,0.3-0.1H14.7z M20.2,17.4c0-0.5-0.1-1-0.4-1.3c-0.2-0.3-0.7-0.5-1.2-0.5
		c-1.1,0-1.6,0.6-1.6,1.9c0,0.5,0.1,0.9,0.4,1.2c0.3,0.3,0.7,0.4,1.2,0.4c0.5,0,0.9-0.1,1.2-0.4C20.1,18.3,20.2,17.9,20.2,17.4z"></path>
</g>
</symbol><symbol id="pg-demo-icon"></symbol><symbol viewBox="0 0 24 24" id="pg-download">
	<path d="M17,21H7c-2.2,0-4-1.8-4-4v-1c0-0.6,0.4-1,1-1s1,0.4,1,1v1c0,1.1,0.9,2,2,2h10c1.1,0,2-0.9,2-2v-1c0-0.6,0.4-1,1-1
		s1,0.4,1,1v1C21,19.2,19.2,21,17,21z M12,17c-0.1,0-0.3,0-0.4-0.1c-0.1,0-0.2-0.1-0.3-0.2h0c0,0,0,0,0,0h0c0,0,0,0,0,0c0,0,0,0,0,0
		l0,0c0,0,0,0,0,0c0,0,0,0,0,0c0,0,0,0,0,0l0,0l0,0l0,0l-4-4c-0.4-0.4-0.4-1,0-1.4c0.4-0.4,1-0.4,1.4,0l2.3,2.3V4c0-0.6,0.4-1,1-1
		s1,0.4,1,1v9.6l2.3-2.3c0.4-0.4,1-0.4,1.4,0c0.4,0.4,0.4,1,0,1.4l-4,4l0,0l0,0l0,0c0,0,0,0,0,0c0,0,0,0,0,0c0,0,0,0,0,0l0,0
		c0,0,0,0,0,0c0,0,0,0,0,0h0c0,0,0,0,0,0h0c0,0,0,0,0,0c0,0,0,0,0,0c0,0,0,0,0,0c-0.1,0.1-0.2,0.2-0.3,0.2C12.3,17,12.1,17,12,17z"></path>

</symbol><symbol viewBox="0 0 24 24" id="pg-edit">
<path d="M15 22.75H9C3.57 22.75 1.25 20.43 1.25 15V9C1.25 3.57 3.57 1.25 9 1.25H11C11.41 1.25 11.75 1.59 11.75 2C11.75 2.41 11.41 2.75 11 2.75H9C4.39 2.75 2.75 4.39 2.75 9V15C2.75 19.61 4.39 21.25 9 21.25H15C19.61 21.25 21.25 19.61 21.25 15V13C21.25 12.59 21.59 12.25 22 12.25C22.41 12.25 22.75 12.59 22.75 13V15C22.75 20.43 20.43 22.75 15 22.75Z" fill="#292D32"></path>
<path d="M8.49935 17.6901C7.88935 17.6901 7.32935 17.4701 6.91935 17.0701C6.42935 16.5801 6.21935 15.8701 6.32935 15.1201L6.75935 12.1101C6.83935 11.5301 7.21935 10.7801 7.62935 10.3701L15.5093 2.49006C17.4993 0.500059 19.5193 0.500059 21.5093 2.49006C22.5993 3.58006 23.0893 4.69006 22.9893 5.80006C22.8993 6.70006 22.4193 7.58006 21.5093 8.48006L13.6293 16.3601C13.2193 16.7701 12.4693 17.1501 11.8893 17.2301L8.87935 17.6601C8.74935 17.6901 8.61935 17.6901 8.49935 17.6901ZM16.5693 3.55006L8.68935 11.4301C8.49935 11.6201 8.27935 12.0601 8.23935 12.3201L7.80935 15.3301C7.76935 15.6201 7.82935 15.8601 7.97935 16.0101C8.12935 16.1601 8.36935 16.2201 8.65935 16.1801L11.6693 15.7501C11.9293 15.7101 12.3793 15.4901 12.5593 15.3001L20.4393 7.42006C21.0893 6.77006 21.4293 6.19006 21.4793 5.65006C21.5393 5.00006 21.1993 4.31006 20.4393 3.54006C18.8393 1.94006 17.7393 2.39006 16.5693 3.55006Z" fill="#292D32"></path>
<path d="M19.8496 9.82978C19.7796 9.82978 19.7096 9.81978 19.6496 9.79978C17.0196 9.05978 14.9296 6.96978 14.1896 4.33978C14.0796 3.93978 14.3096 3.52978 14.7096 3.40978C15.1096 3.29978 15.5196 3.52978 15.6296 3.92978C16.2296 6.05978 17.9196 7.74978 20.0496 8.34978C20.4496 8.45978 20.6796 8.87978 20.5696 9.27978C20.4796 9.61978 20.1796 9.82978 19.8496 9.82978Z" fill="#292D32"></path>
</symbol><symbol viewBox="0 0 24 24" id="pg-email">
    <path d="M17 3H7C4 3 2 4.5 2 8v7c0 3.5 2 5 5 5h3.57c.59 0 1.07-.52.99-1.11-.1-.71-.08-1.45.07-2.21.53-2.6 2.67-4.67 5.29-5.1a6.51 6.51 0 0 1 3.66.45c.67.29 1.42-.17 1.42-.9V8c0-3.5-2-5-5-5Zm.47 5.59-3.13 2.5c-.66.53-1.5.79-2.34.79-.84 0-1.69-.26-2.34-.79l-3.13-2.5a.768.768 0 0 1-.12-1.06c.26-.32.73-.38 1.05-.12l3.13 2.5c.76.61 2.05.61 2.81 0l3.13-2.5c.32-.26.8-.21 1.05.12.26.33.21.8-.11 1.06Z" fill="#FF8A65"></path>
    <path d="M18 13c-2.76 0-5 2.23-5 5 0 2.76 2.24 5 5 5 2.77 0 5-2.24 5-5 0-2.77-2.23-5-5-5Zm2.05 4.55-.37.36-2.18 2.19c-.1.09-.29.19-.43.21l-.98.14c-.35.05-.6-.2-.55-.55l.14-.98a.87.87 0 0 1 .21-.43l2.18-2.17.36-.37c.24-.24.51-.4.79-.4.24 0 .51.11.81.4.67.65.46 1.16.02 1.6Z" fill="#FF8A65"></path>
</symbol><symbol viewBox="0 0 512 512" id="pg-fa-facebook">
    <path d="M504 256C504 119 393 8 256 8S8 119 8 256c0 123.78 90.69 226.38 209.25 245V327.69h-63V256h63v-54.64c0-62.15 37-96.48 93.67-96.48 27.14 0 55.52 4.84 55.52 4.84v61h-31.28c-30.8 0-40.41 19.12-40.41 38.73V256h68.78l-11 71.69h-57.78V501C413.31 482.38 504 379.78 504 256z"></path>
</symbol><symbol viewBox="0 0 24 24" id="pg-fa-instagram">
    <path d="M15 22.75H9c-5.43 0-7.75-2.32-7.75-7.75V9c0-5.43 2.32-7.75 7.75-7.75h6c5.43 0 7.75 2.32 7.75 7.75v6c0 5.43-2.32 7.75-7.75 7.75Zm-6-20C4.39 2.75 2.75 4.39 2.75 9v6c0 4.61 1.64 6.25 6.25 6.25h6c4.61 0 6.25-1.64 6.25-6.25V9c0-4.61-1.64-6.25-6.25-6.25H9Z" fill="#FF8A65"></path>
    <path d="M12 16.25A4.26 4.26 0 0 1 7.75 12 4.26 4.26 0 0 1 12 7.75 4.26 4.26 0 0 1 16.25 12 4.26 4.26 0 0 1 12 16.25Zm0-7c-1.52 0-2.75 1.23-2.75 2.75s1.23 2.75 2.75 2.75 2.75-1.23 2.75-2.75S13.52 9.25 12 9.25ZM17 7.5c-.13 0-.26-.03-.38-.08s-.23-.12-.33-.21c-.09-.1-.17-.21-.22-.33A.986.986 0 0 1 16 6.5c0-.13.02-.26.07-.38.06-.13.13-.23.22-.33.05-.04.1-.09.15-.12.06-.04.12-.07.18-.09a1.006 1.006 0 0 1 1.09.21c.09.1.16.2.21.33.05.12.08.25.08.38s-.03.26-.08.38-.12.23-.21.33c-.1.09-.21.16-.33.21-.12.05-.25.08-.38.08Z" fill="#FF8A65"></path>
</symbol><symbol viewBox="0 0 448 512" id="pg-fa-linkedin">
    <path d="M416 32H31.9C14.3 32 0 46.5 0 64.3v383.4C0 465.5 14.3 480 31.9 480H416c17.6 0 32-14.5 32-32.3V64.3c0-17.8-14.4-32.3-32-32.3zM135.4 416H69V202.2h66.5V416zm-33.2-243c-21.3 0-38.5-17.3-38.5-38.5S80.9 96 102.2 96c21.2 0 38.5 17.3 38.5 38.5 0 21.3-17.2 38.5-38.5 38.5zm282.1 243h-66.4V312c0-24.8-.5-56.7-34.5-56.7-34.6 0-39.9 27-39.9 54.9V416h-66.4V202.2h63.7v29.2h.9c8.9-16.8 30.6-34.5 62.9-34.5 67.2 0 79.7 44.3 79.7 101.9V416z"></path>
</symbol><symbol viewBox="0 0 496 512" id="pg-fa-telegram"><!--! Font Awesome Pro 6.2.0 by @fontawesome - https://fontawesome.com License - https://fontawesome.com/license (Commercial License) Copyright 2022 Fonticons, Inc. -->
    <path d="M248,8C111.033,8,0,119.033,0,256S111.033,504,248,504,496,392.967,496,256,384.967,8,248,8ZM362.952,176.66c-3.732,39.215-19.881,134.378-28.1,178.3-3.476,18.584-10.322,24.816-16.948,25.425-14.4,1.326-25.338-9.517-39.287-18.661-21.827-14.308-34.158-23.215-55.346-37.177-24.485-16.135-8.612-25,5.342-39.5,3.652-3.793,67.107-61.51,68.335-66.746.153-.655.3-3.1-1.154-4.384s-3.59-.849-5.135-.5q-3.283.746-104.608,69.142-14.845,10.194-26.894,9.934c-8.855-.191-25.888-5.006-38.551-9.123-15.531-5.048-27.875-7.717-26.8-16.291q.84-6.7,18.45-13.7,108.446-47.248,144.628-62.3c68.872-28.647,83.183-33.623,92.511-33.789,2.052-.034,6.639.474,9.61,2.885a10.452,10.452,0,0,1,3.53,6.716A43.765,43.765,0,0,1,362.952,176.66Z"></path>
</symbol><symbol viewBox="0 0 512 512" id="pg-fa-twitter"><!--! Font Awesome Pro 6.2.0 by @fontawesome - https://fontawesome.com License - https://fontawesome.com/license (Commercial License) Copyright 2022 Fonticons, Inc. -->
    <path d="M459.37 151.716c.325 4.548.325 9.097.325 13.645 0 138.72-105.583 298.558-298.558 298.558-59.452 0-114.68-17.219-161.137-47.106 8.447.974 16.568 1.299 25.34 1.299 49.055 0 94.213-16.568 130.274-44.832-46.132-.975-84.792-31.188-98.112-72.772 6.498.974 12.995 1.624 19.818 1.624 9.421 0 18.843-1.3 27.614-3.573-48.081-9.747-84.143-51.98-84.143-102.985v-1.299c13.969 7.797 30.214 12.67 47.431 13.319-28.264-18.843-46.781-51.005-46.781-87.391 0-19.492 5.197-37.36 14.294-52.954 51.655 63.675 129.3 105.258 216.365 109.807-1.624-7.797-2.599-15.918-2.599-24.04 0-57.828 46.782-104.934 104.934-104.934 30.213 0 57.502 12.67 76.67 33.137 23.715-4.548 46.456-13.32 66.599-25.34-7.798 24.366-24.366 44.833-46.132 57.827 21.117-2.273 41.584-8.122 60.426-16.243-14.292 20.791-32.161 39.308-52.628 54.253z"></path>
</symbol><symbol viewBox="0 0 24 24" id="pg-fa-whatsapp">
    <path fill="#FF8A65" d="M21.98 11.41c-.34-5.8-5.61-10.27-11.68-9.27-4.18.69-7.53 4.08-8.18 8.26-.38 2.42.12 4.71 1.21 6.6l-.89 3.31c-.2.75.49 1.43 1.23 1.22l3.26-.9c1.48.87 3.21 1.37 5.06 1.37 5.64 0 10.32-4.97 9.99-10.59zm-5.1 4.31a2.279 2.279 0 01-1.16 1.1c-.3.13-.63.19-.98.19-.51 0-1.06-.12-1.63-.37a9.16 9.16 0 01-1.72-.99c-.58-.42-1.12-.89-1.64-1.4-.52-.52-.98-1.07-1.4-1.64-.41-.57-.74-1.14-.98-1.71-.24-.57-.36-1.12-.36-1.64 0-.34.06-.67.18-.97.12-.31.31-.59.58-.84.32-.32.67-.47 1.04-.47.14 0 .28.03.41.09.13.06.25.15.34.28l1.16 1.64c.09.13.16.24.2.35.05.11.07.21.07.31 0 .12-.04.24-.11.36s-.16.24-.28.36l-.38.4c-.06.06-.08.12-.08.2 0 .04.01.08.02.12.02.04.03.07.04.1.09.17.25.38.47.64a13.482 13.482 0 001.53 1.53c.26.22.48.37.65.46.03.01.06.03.09.04.04.02.08.02.13.02.09 0 .15-.03.21-.09l.38-.38c.13-.13.25-.22.36-.28.12-.07.23-.11.36-.11.1 0 .2.02.31.07.11.05.23.11.35.2l1.66 1.18c.13.09.22.2.28.32.05.13.08.25.08.39-.06.17-.1.36-.18.54z"></path>
</symbol><symbol viewBox="0 0 320 512" id="pg-fa-xmark-solid"><!--! Font Awesome Pro 6.2.0 by @fontawesome - https://fontawesome.com License - https://fontawesome.com/license (Commercial License) Copyright 2022 Fonticons, Inc. -->
    <path d="M310.6 150.6c12.5-12.5 12.5-32.8 0-45.3s-32.8-12.5-45.3 0L160 210.7 54.6 105.4c-12.5-12.5-32.8-12.5-45.3 0s-12.5 32.8 0 45.3L114.7 256 9.4 361.4c-12.5 12.5-12.5 32.8 0 45.3s32.8 12.5 45.3 0L160 301.3 265.4 406.6c12.5 12.5 32.8 12.5 45.3 0s12.5-32.8 0-45.3L205.3 256 310.6 150.6z"></path>
</symbol><symbol viewBox="0 0 576 512" id="pg-fa-youtube"><!--! Font Awesome Pro 6.2.0 by @fontawesome - https://fontawesome.com License - https://fontawesome.com/license (Commercial License) Copyright 2022 Fonticons, Inc. -->
    <path d="M549.655 124.083c-6.281-23.65-24.787-42.276-48.284-48.597C458.781 64 288 64 288 64S117.22 64 74.629 75.486c-23.497 6.322-42.003 24.947-48.284 48.597-11.412 42.867-11.412 132.305-11.412 132.305s0 89.438 11.412 132.305c6.281 23.65 24.787 41.5 48.284 47.821C117.22 448 288 448 288 448s170.78 0 213.371-11.486c23.497-6.321 42.003-24.171 48.284-47.821 11.412-42.867 11.412-132.305 11.412-132.305s0-89.438-11.412-132.305zm-317.51 213.508V175.185l142.739 81.205-142.739 81.201z"></path>
</symbol><symbol id="pg-heart"><path d="M20.84 4.61a5.5 5.5 0 0 0-7.78 0L12 5.67l-1.06-1.06a5.5 5.5 0 0 0-7.78 7.78l1.06 1.06L12 21.23l7.78-7.78 1.06-1.06a5.5 5.5 0 0 0 0-7.78"></path></symbol><symbol id="pg-home"><path d="m3 9 9-7 9 7v11a2 2 0 0 1-2 2H5a2 2 0 0 1-2-2z"></path><path d="M9 22V12h6v10"></path></symbol><symbol id="pg-info"><circle cx="12" cy="12" r="10"></circle><path d="M12 16v-4M12 8"></path></symbol><symbol viewBox="0 0 24 24" id="pg-instagram">
    <path d="M7.5 5C6.11929 5 5 6.11929 5 7.5C5 8.88071 6.11929 10 7.5 10C8.88071 10 10 8.88071 10 7.5C10 6.11929 8.88071 5 7.5 5Z" fill="#000000"></path>
    <path fill-rule="evenodd" clip-rule="evenodd" d="M4.5 0C2.01472 0 0 2.01472 0 4.5V10.5C0 12.9853 2.01472 15 4.5 15H10.5C12.9853 15 15 12.9853 15 10.5V4.5C15 2.01472 12.9853 0 10.5 0H4.5ZM4 7.5C4 5.567 5.567 4 7.5 4C9.433 4 11 5.567 11 7.5C11 9.433 9.433 11 7.5 11C5.567 11 4 9.433 4 7.5ZM11 4H12V3H11V4Z" fill="#000000"></path>
</symbol><symbol viewBox="0 0 24 24" id="pg-ios">
    <path id="Vector" d="M2.9,7C2.4,7,2,7.4,2,7.9c0,0.1,0,0.2,0.1,0.3c0,0.1,0.1,0.2,0.2,0.3c0.1,0.1,0.2,0.1,0.3,0.2
			c0.1,0,0.2,0.1,0.3,0.1c0.5,0,0.9-0.4,0.9-0.9C3.8,7.4,3.4,7,2.9,7z M9.3,7.1C6.5,7.1,4.7,9,4.7,12c0,3.1,1.8,5,4.5,5
			c2.8,0,4.5-1.9,4.5-5C13.8,9,12,7.1,9.3,7.1z M18.3,7.1c-2.1,0-3.6,1.2-3.6,2.9c0,1.4,0.8,2.2,2.6,2.6l1.2,0.3
			c1.2,0.3,1.7,0.7,1.7,1.4c0,0.8-0.8,1.4-2,1.4c-1.2,0-2.1-0.6-2.2-1.5h-1.7c0.1,1.8,1.5,2.8,3.7,2.8c2.3,0,3.8-1.1,3.8-3
			c0-1.4-0.8-2.2-2.8-2.7l-1.1-0.2c-1.2-0.3-1.7-0.7-1.7-1.3c0-0.8,0.7-1.3,1.8-1.3c1.1,0,1.8,0.5,1.9,1.4h1.6
			C21.8,8.2,20.4,7.1,18.3,7.1z M9.3,8.5c1.7,0,2.8,1.4,2.8,3.5c0,2.1-1.1,3.5-2.8,3.5c-1.7,0-2.8-1.4-2.8-3.5
			C6.5,9.9,7.5,8.5,9.3,8.5z M2.1,9.8v7h1.7v-7H2.1L2.1,9.8z"></path>
</symbol><symbol id="pg-keyboard"><path stroke="#EC3237" stroke-linecap="round" stroke-linejoin="round" stroke-width="1.5" d="M10 5.334h12c.827 0 1.56.027 2.213.12 3.507.387 4.454 2.04 4.454 6.547v8c0 4.506-.947 6.16-4.454 6.546-.653.094-1.386.12-2.213.12H10c-.827 0-1.56-.026-2.213-.12-3.507-.386-4.454-2.04-4.454-6.546v-8c0-4.507.947-6.16 4.454-6.547.653-.093 1.386-.12 2.213-.12M18 13.334h4.667M9.333 20.666h13.334"></path><path stroke="#EC3237" stroke-linecap="round" stroke-linejoin="round" stroke-width="2" d="M13.46 13.333h.011M9.46 13.333h.011"></path></symbol><symbol viewBox="0 0 24 24" id="pg-lamp">
    <g>
        <path d="M3,9c0-1.5,0.4-2.9,1.1-4.3c0.7-1.3,1.7-2.4,3-3.2C8.3,0.7,9.7,0.2,11.2,0c1.5-0.1,3,0.1,4.3,0.7
		c1.4,0.6,2.6,1.5,3.5,2.6c0.9,1.2,1.6,2.5,1.8,4c0.3,1.5,0.2,3-0.3,4.4c-0.5,1.4-1.2,2.7-2.3,3.7c-0.3,0.3-0.5,0.6-0.7,0.9L16.4,19
		c-0.1,0.1-0.2,0.2-0.3,0.3c-0.1,0.1-0.3,0.1-0.4,0.1H8.2c-0.1,0-0.3,0-0.4-0.1c-0.1-0.1-0.2-0.2-0.3-0.3l-1.1-2.7
		C6.3,16,6,15.7,5.7,15.5c-0.9-0.8-1.6-1.8-2-3C3.2,11.4,3,10.2,3,9z M7.5,21.8c0-0.2,0.1-0.4,0.2-0.5C7.9,21.1,8.1,21,8.2,21h7.5
		c0.2,0,0.4,0.1,0.5,0.2c0.1,0.1,0.2,0.3,0.2,0.5s-0.1,0.4-0.2,0.5c-0.1,0.1-0.3,0.2-0.5,0.2l-0.3,0.7c-0.1,0.2-0.3,0.5-0.6,0.6
		c-0.2,0.1-0.5,0.2-0.8,0.2H9.9c-0.3,0-0.6-0.1-0.8-0.2c-0.2-0.1-0.4-0.4-0.6-0.6l-0.3-0.7c-0.2,0-0.4-0.1-0.5-0.2
		C7.6,22.1,7.5,21.9,7.5,21.8z"></path>
    </g>
</symbol><symbol viewBox="0 0 24 24" id="pg-like-2">
    <path d="M12.62 20.8096C12.28 20.9296 11.72 20.9296 11.38 20.8096C8.48 19.8196 2 15.6896 2 8.68961C2 5.59961 4.49 3.09961 7.56 3.09961C9.38 3.09961 10.99 3.97961 12 5.33961C13.01 3.97961 14.63 3.09961 16.44 3.09961C19.51 3.09961 22 5.59961 22 8.68961C22 15.6896 15.52 19.8196 12.62 20.8096Z" stroke="#9A9A9A" stroke-width="1.5" stroke-linecap="round" stroke-linejoin="round"></path>
</symbol><symbol viewBox="0 0 24 25" id="pg-like-outline">
    <path d="M19.3717 12.3892L11.9999 20.4981L4.62813 12.3892C3.15681 10.7707 3.21603 8.28202 4.76267 6.73538C6.48959 5.00846 9.33419 5.16601 10.8598 7.07307L11.9999 8.49814L13.14 7.07307C14.6656 5.166 17.5102 5.00846 19.2371 6.73538C20.7838 8.28202 20.843 10.7707 19.3717 12.3892Z" stroke="#000000" stroke-width="2" stroke-linecap="round" stroke-linejoin="round"></path>
</symbol><symbol id="pg-location"><path stroke="#EC3237" stroke-width="1.5" d="M16 17.906a4.16 4.16 0 1 0 0-8.32 4.16 4.16 0 0 0 0 8.32Z"></path><path stroke="#EC3237" stroke-width="1.5" d="M4.827 11.32C7.453-.228 24.56-.215 27.173 11.332c1.534 6.773-2.68 12.506-6.373 16.053-2.68 2.587-6.92 2.587-9.613 0-3.68-3.547-7.894-9.293-6.36-16.067Z"></path></symbol><symbol viewBox="0 0 24 24" id="pg-macos-os">
	<path d="M20.6,16.7c-0.5,1-0.7,1.5-1.3,2.4c-0.8,1.3-2,2.9-3.5,2.9c-1.3,0-1.6-0.9-3.4-0.8c-1.8,0-2.1,0.9-3.5,0.8
		c-1.5,0-2.6-1.5-3.4-2.7c-2.4-3.6-2.6-7.8-1.2-10.1c1-1.6,2.7-2.5,4.2-2.5c1.6,0,2.5,0.9,3.8,0.9c1.3,0,2-0.9,3.8-0.9
		c1.4,0,2.8,0.7,3.8,2C16.6,10.6,17.2,15.4,20.6,16.7z M14.8,5.2c0.7-0.8,1.2-2,1-3.2c-1.1,0.1-2.3,0.8-3.1,1.6
		c-0.7,0.8-1.2,2-1,3.2C12.9,6.8,14.1,6.2,14.8,5.2z"></path>
</symbol><symbol id="pg-mail"><path d="M4 4h16c1.1 0 2 .9 2 2v12c0 1.1-.9 2-2 2H4c-1.1 0-2-.9-2-2V6c0-1.1.9-2 2-2"></path><path d="m22 6-10 7L2 6"></path></symbol><symbol viewBox="0 0 24 24" id="pg-mines">
<rect x="0" y="10.75" width="24" height="2.5"></rect>
</symbol><symbol viewBox="0 0 24 24" id="pg-o-arrow-down-1">
<path d="M11.9995 16.8001C11.2995 16.8001 10.5995 16.5301 10.0695 16.0001L3.54953 9.48014C3.25953 9.19014 3.25953 8.71014 3.54953 8.42014C3.83953 8.13014 4.31953 8.13014 4.60953 8.42014L11.1295 14.9401C11.6095 15.4201 12.3895 15.4201 12.8695 14.9401L19.3895 8.42014C19.6795 8.13014 20.1595 8.13014 20.4495 8.42014C20.7395 8.71014 20.7395 9.19014 20.4495 9.48014L13.9295 16.0001C13.3995 16.5301 12.6995 16.8001 11.9995 16.8001Z" fill="#292D32"></path>
</symbol><symbol viewBox="0 0 24 24" id="pg-o-arrow-left-2">
<path d="M14.9993 20.67C14.8093 20.67 14.6193 20.6 14.4693 20.45L7.9493 13.93C6.8893 12.87 6.8893 11.13 7.9493 10.07L14.4693 3.55002C14.7593 3.26002 15.2393 3.26002 15.5293 3.55002C15.8193 3.84002 15.8193 4.32002 15.5293 4.61002L9.0093 11.13C8.5293 11.61 8.5293 12.39 9.0093 12.87L15.5293 19.39C15.8193 19.68 15.8193 20.16 15.5293 20.45C15.3793 20.59 15.1893 20.67 14.9993 20.67Z" fill="#292D32"></path>
</symbol><symbol viewBox="0 0 24 24" id="pg-o-arrow-right-3">
<path d="M8.90961 20.67C8.71961 20.67 8.52961 20.6 8.37961 20.45C8.08961 20.16 8.08961 19.68 8.37961 19.39L14.8996 12.87C15.3796 12.39 15.3796 11.61 14.8996 11.13L8.37961 4.61002C8.08961 4.32002 8.08961 3.84002 8.37961 3.55002C8.66961 3.26002 9.14961 3.26002 9.43961 3.55002L15.9596 10.07C16.4696 10.58 16.7596 11.27 16.7596 12C16.7596 12.73 16.4796 13.42 15.9596 13.93L9.43961 20.45C9.28961 20.59 9.09961 20.67 8.90961 20.67Z" fill="#292D32"></path>
</symbol><symbol viewBox="0 0 24 24" id="pg-o-arrow-up-2">
<path d="M19.9195 15.8001C19.7295 15.8001 19.5395 15.7301 19.3895 15.5801L12.8695 9.06008C12.3895 8.58008 11.6095 8.58008 11.1295 9.06008L4.60953 15.5801C4.31953 15.8701 3.83953 15.8701 3.54953 15.5801C3.25953 15.2901 3.25953 14.8101 3.54953 14.5201L10.0695 8.00008C11.1295 6.94008 12.8595 6.94008 13.9295 8.00008L20.4495 14.5201C20.7395 14.8101 20.7395 15.2901 20.4495 15.5801C20.2995 15.7201 20.1095 15.8001 19.9195 15.8001Z" fill="#292D32"></path>
</symbol><symbol viewBox="0 0 24 24" id="pg-o-star">
<path class="st0" d="M18.9,22.6L12,19.2l-6.9,3.4L6.2,15L0.9,9.5l7.5-1.3L12,1.4l3.6,6.8l7.5,1.3L17.8,15L18.9,22.6z M5,10.8
	l3.4,3.5l-0.7,4.8L12,17l4.3,2.1l-0.7-4.8l3.4-3.5L14.3,10L12,5.7L9.7,10L5,10.8z"></path>
</symbol><symbol viewBox="0 0 24 24" id="pg-phone_call">
    <path fill="#FF8A65" d="M11.05 14.95L9.2 16.8c-.39.39-1.01.39-1.41.01-.11-.11-.22-.21-.33-.32a28.414 28.414 0 01-2.79-3.27c-.82-1.14-1.48-2.28-1.96-3.41C2.24 8.67 2 7.58 2 6.54c0-.68.12-1.33.36-1.93.24-.61.62-1.17 1.15-1.67C4.15 2.31 4.85 2 5.59 2c.28 0 .56.06.81.18.26.12.49.3.67.56l2.32 3.27c.18.25.31.48.4.7.09.21.14.42.14.61 0 .24-.07.48-.21.71-.13.23-.32.47-.56.71l-.76.79c-.11.11-.16.24-.16.4 0 .08.01.15.03.23.03.08.06.14.08.2.18.33.49.76.93 1.28.45.52.93 1.05 1.45 1.58.1.1.21.2.31.3.4.39.41 1.03.01 1.43zM21.97 18.33a2.54 2.54 0 01-.25 1.09c-.17.36-.39.7-.68 1.02-.49.54-1.03.93-1.64 1.18-.01 0-.02.01-.03.01-.59.24-1.23.37-1.92.37-1.02 0-2.11-.24-3.26-.73s-2.3-1.15-3.44-1.98c-.39-.29-.78-.58-1.15-.89l3.27-3.27c.28.21.53.37.74.48.05.02.11.05.18.08.08.03.16.04.25.04.17 0 .3-.06.41-.17l.76-.75c.25-.25.49-.44.72-.56.23-.14.46-.21.71-.21.19 0 .39.04.61.13.22.09.45.22.7.39l3.31 2.35c.26.18.44.39.55.64.1.25.16.5.16.78z"></path>
</symbol><symbol viewBox="0 0 24 24" id="pg-plus">
<rect x="0" y="10.75" width="24" height="2.5"></rect>
<rect y="0" x="10.75" width="2.5" height="24"></rect>
</symbol><symbol viewBox="0 0 24 24" id="pg-quote">
    <path class="st0" d="M7.2,24h7.2l4.8-9.6V0H4.8v14.4H12L7.2,24z"></path>
</symbol><symbol viewBox="0 0 24 24" id="pg-report">
    <path d="M10.7543 3.45879C11.4721 2.84707 12.5279 2.84707 13.2457 3.45879L14.4667 4.49929C14.7743 4.76143 15.1567 4.91985 15.5596 4.952L17.1587 5.07961C18.0988 5.15463 18.8454 5.90117 18.9204 6.8413L19.048 8.4404C19.0802 8.84327 19.2386 9.22573 19.5007 9.53333L20.5412 10.7543C21.1529 11.4721 21.1529 12.5279 20.5412 13.2457L19.5007 14.4667C19.2386 14.7743 19.0802 15.1567 19.048 15.5596L18.9204 17.1587C18.8454 18.0988 18.0988 18.8454 17.1587 18.9204L15.5596 19.048C15.1567 19.0802 14.7743 19.2386 14.4667 19.5007L13.2457 20.5412C12.5279 21.1529 11.4721 21.1529 10.7543 20.5412L9.53333 19.5007C9.22573 19.2386 8.84327 19.0802 8.4404 19.048L6.8413 18.9204C5.90117 18.8454 5.15463 18.0988 5.07961 17.1587L4.952 15.5596C4.91985 15.1567 4.76143 14.7743 4.49929 14.4667L3.45879 13.2457C2.84707 12.5279 2.84707 11.4721 3.45879 10.7543L4.49929 9.53333C4.76143 9.22573 4.91985 8.84327 4.952 8.4404L5.07961 6.8413C5.15463 5.90117 5.90117 5.15463 6.8413 5.07961L8.4404 4.952C8.84327 4.91985 9.22573 4.76143 9.53333 4.49929L10.7543 3.45879Z" stroke="#000000" stroke-width="2" stroke-linecap="round" stroke-linejoin="round"></path>
    <path d="M11.9502 15.4492H12.0502V15.5492H11.9502V15.4492Z" stroke="#000000" stroke-width="2" stroke-linecap="round" stroke-linejoin="round"></path>
    <path d="M12 8L12 10V12" stroke="#000000" stroke-width="2" stroke-linecap="round" stroke-linejoin="round"></path>
</symbol><symbol viewBox="0 0 24 24" id="pg-search-normal">
    <path d="M11.5 21.75C5.85 21.75 1.25 17.15 1.25 11.5C1.25 5.85 5.85 1.25 11.5 1.25C17.15 1.25 21.75 5.85 21.75 11.5C21.75 17.15 17.15 21.75 11.5 21.75ZM11.5 2.75C6.67 2.75 2.75 6.68 2.75 11.5C2.75 16.32 6.67 20.25 11.5 20.25C16.33 20.25 20.25 16.32 20.25 11.5C20.25 6.68 16.33 2.75 11.5 2.75Z" fill="#292D32"></path>
    <path d="M22.0004 22.7499C21.8104 22.7499 21.6204 22.6799 21.4704 22.5299L19.4704 20.5299C19.1804 20.2399 19.1804 19.7599 19.4704 19.4699C19.7604 19.1799 20.2404 19.1799 20.5304 19.4699L22.5304 21.4699C22.8204 21.7599 22.8204 22.2399 22.5304 22.5299C22.3804 22.6799 22.1904 22.7499 22.0004 22.7499Z" fill="#292D32"></path>
</symbol><symbol id="pg-settings"><circle cx="12" cy="12" r="3"></circle><path d="M19.4 15a1.65 1.65 0 0 0 .33 1.82l.06.06a2 2 0 0 1 0 2.83 2 2 0 0 1-2.83 0l-.06-.06a1.65 1.65 0 0 0-1.82-.33 1.65 1.65 0 0 0-1 1.51V21a2 2 0 0 1-2 2 2 2 0 0 1-2-2v-.09A1.65 1.65 0 0 0 9 19.4a1.65 1.65 0 0 0-1.82.33l-.06.06a2 2 0 0 1-2.83 0 2 2 0 0 1 0-2.83l.06-.06a1.65 1.65 0 0 0 .33-1.82 1.65 1.65 0 0 0-1.51-1H3a2 2 0 0 1-2-2 2 2 0 0 1 2-2h.09A1.65 1.65 0 0 0 4.6 9a1.65 1.65 0 0 0-.33-1.82l-.06-.06a2 2 0 0 1 0-2.83 2 2 0 0 1 2.83 0l.06.06a1.65 1.65 0 0 0 1.82.33H9a1.65 1.65 0 0 0 1-1.51V3a2 2 0 0 1 2-2 2 2 0 0 1 2 2v.09a1.65 1.65 0 0 0 1 1.51 1.65 1.65 0 0 0 1.82-.33l.06-.06a2 2 0 0 1 2.83 0 2 2 0 0 1 0 2.83l-.06.06a1.65 1.65 0 0 0-.33 1.82V9a1.65 1.65 0 0 0 1.51 1H21a2 2 0 0 1 2 2 2 2 0 0 1-2 2h-.09a1.65 1.65 0 0 0-1.51 1"></path></symbol><symbol viewBox="0 0 24 24" id="pg-skype">
	<path fill-rule="evenodd" clip-rule="evenodd" d="M0 4.45652C0 1.99516 1.99516 0 4.45652 0C5.30581 0 6.10158 0.23862 6.77772 0.652189C7.01002 0.626299 7.2512 0.608696 7.5 0.608696C11.3053 0.608696 14.3913 3.694 14.3913 7.5C14.3913 7.74838 14.3742 7.98953 14.3477 8.223C14.7609 8.8987 15 9.69368 15 10.5435C15 13.0049 13.0042 15 10.5435 15C9.69362 15 8.89846 14.7614 8.22209 14.348C7.989 14.3741 7.74799 14.3913 7.5 14.3913C3.69403 14.3913 0.608696 11.306 0.608696 7.5C0.608696 7.25158 0.625863 7.0105 0.651994 6.77741C0.238568 6.10144 0 5.30627 0 4.45652ZM6 6C6 5.44772 6.44772 5 7 5H7.88197C8.37778 5 8.83105 5.28013 9.05279 5.72361L9.94721 5.27639C9.55608 4.49413 8.75656 4 7.88197 4H7C5.89543 4 5 4.89543 5 6C5 7.10457 5.89543 8 7 8H8C8.55228 8 9 8.44772 9 9C9 9.55228 8.55228 10 8 10H7.11803C6.62222 10 6.16895 9.71987 5.94721 9.27639L5.05279 9.72361C5.44392 10.5059 6.24344 11 7.11803 11H8C9.10457 11 10 10.1046 10 9C10 7.89543 9.10457 7 8 7H7C6.44772 7 6 6.55228 6 6Z" fill="#000000"></path>
</symbol><symbol viewBox="0 0 24 24" id="pg-spinner">
    <circle cx="12" cy="12" r="11" stroke-linecap="round" stroke-width="2" stroke-dashoffset="-25" stroke-dasharray="150, 200"></circle>
</symbol><symbol viewBox="0 0 24 24" id="pg-telegram"><path d="m12 0c-6.627 0-12 5.373-12 12s5.373 12 12 12 12-5.373 12-12c0-6.627-5.373-12-12-12zm5.894 8.221-1.97 9.28c-.145.658-.537.818-1.084.508l-3-2.21-1.446 1.394c-.14.18-.357.295-.6.295-.002 0-.003 0-.005 0l.213-3.054 5.56-5.022c.24-.213-.054-.334-.373-.121l-6.869 4.326-2.96-.924c-.64-.203-.658-.64.135-.954l11.566-4.458c.538-.196 1.006.128.832.941z"></path></symbol><symbol id="pg-test-icon"></symbol><symbol viewBox="0 0 24 24" id="pg-user">
    <path d="M5 21C5 17.134 8.13401 14 12 14C15.866 14 19 17.134 19 21" stroke="#000000" stroke-width="2" stroke-linecap="round" stroke-linejoin="round"></path>
    <path d="M12 11C14.2091 11 16 9.20914 16 7C16 4.79086 14.2091 3 12 3C9.79086 3 8 4.79086 8 7C8 9.20914 9.79086 11 12 11Z" stroke="#000000" stroke-width="2" stroke-linecap="round" stroke-linejoin="round"></path>
</symbol><symbol viewBox="0 0 24 24" id="pg-web">
    <path id="Vector" d="M16.4,14c0.1-0.7,0.1-1.3,0.1-2c0-0.7-0.1-1.3-0.1-2h3.4c0.2,0.6,0.3,1.3,0.3,2c0,0.7-0.1,1.4-0.3,2
		 M14.6,19.6c0.6-1.1,1.1-2.3,1.4-3.6h3C18,17.7,16.4,18.9,14.6,19.6z M14.3,14H9.7c-0.1-0.7-0.2-1.3-0.2-2c0-0.7,0.1-1.4,0.2-2h4.7
		c0.1,0.6,0.2,1.3,0.2,2C14.5,12.7,14.4,13.3,14.3,14z M12,20c-0.8-1.2-1.5-2.5-1.9-4h3.8C13.5,17.4,12.8,18.8,12,20z M8,8H5.1
		c1-1.7,2.5-2.9,4.3-3.6C8.8,5.5,8.4,6.7,8,8z M5.1,16H8c0.4,1.2,0.8,2.4,1.4,3.6C7.6,18.9,6,17.7,5.1,16z M4.3,14
		C4.1,13.4,4,12.7,4,12c0-0.7,0.1-1.4,0.3-2h3.4c-0.1,0.7-0.1,1.3-0.1,2c0,0.7,0.1,1.3,0.1,2 M12,4c0.8,1.2,1.5,2.5,1.9,4h-3.8
		C10.5,6.6,11.2,5.2,12,4z M18.9,8h-3c-0.3-1.2-0.8-2.4-1.4-3.6C16.4,5.1,18,6.3,18.9,8z M12,2C6.5,2,2,6.5,2,12
		c0,2.7,1.1,5.2,2.9,7.1c0.9,0.9,2,1.7,3.2,2.2C9.4,21.7,10.7,22,12,22c2.7,0,5.2-1.1,7.1-2.9c1.9-1.9,2.9-4.4,2.9-7.1
		c0-1.3-0.3-2.6-0.8-3.8C20.7,7,20,5.9,19.1,4.9c-0.9-0.9-2-1.7-3.2-2.2C14.6,2.3,13.3,2,12,2z"></path>
</symbol><symbol viewBox="0 0 24 24" id="pg-whatsapp">
    <path fill="#FF8A65" d="M21.98 11.41c-.34-5.8-5.61-10.27-11.68-9.27-4.18.69-7.53 4.08-8.18 8.26-.38 2.42.12 4.71 1.21 6.6l-.89 3.31c-.2.75.49 1.43 1.23 1.22l3.26-.9c1.48.87 3.21 1.37 5.06 1.37 5.64 0 10.32-4.97 9.99-10.59zm-5.1 4.31a2.279 2.279 0 01-1.16 1.1c-.3.13-.63.19-.98.19-.51 0-1.06-.12-1.63-.37a9.16 9.16 0 01-1.72-.99c-.58-.42-1.12-.89-1.64-1.4-.52-.52-.98-1.07-1.4-1.64-.41-.57-.74-1.14-.98-1.71-.24-.57-.36-1.12-.36-1.64 0-.34.06-.67.18-.97.12-.31.31-.59.58-.84.32-.32.67-.47 1.04-.47.14 0 .28.03.41.09.13.06.25.15.34.28l1.16 1.64c.09.13.16.24.2.35.05.11.07.21.07.31 0 .12-.04.24-.11.36s-.16.24-.28.36l-.38.4c-.06.06-.08.12-.08.2 0 .04.01.08.02.12.02.04.03.07.04.1.09.17.25.38.47.64a13.482 13.482 0 001.53 1.53c.26.22.48.37.65.46.03.01.06.03.09.04.04.02.08.02.13.02.09 0 .15-.03.21-.09l.38-.38c.13-.13.25-.22.36-.28.12-.07.23-.11.36-.11.1 0 .2.02.31.07.11.05.23.11.35.2l1.66 1.18c.13.09.22.2.28.32.05.13.08.25.08.39-.06.17-.1.36-.18.54z"></path>
</symbol><symbol viewBox="0 0 24 24" id="pg-windows-fill">
        <path id="Vector" d="M2,4.8l8.2-1.1v7.9H2L2,4.8L2,4.8z M2,19.2l8.2,1.1v-7.8H2L2,19.2z M11.1,20.5L22,22v-9.4H11.1V20.5z
		 M11.1,3.5v8H22V2L11.1,3.5z"></path>
</symbol></svg>