<?xml version="1.0" standalone="no"?>
<!DOCTYPE svg PUBLIC "-//W3C//DTD SVG 1.1//EN" "http://www.w3.org/Graphics/SVG/1.1/DTD/svg11.dtd" >
<svg xmlns="http://www.w3.org/2000/svg">
<defs>
  <font id="pg" horiz-adv-x="1000">
    <font-face font-family="pg"
      units-per-em="1000" ascent="1000"
      descent="0" />
    <missing-glyph horiz-adv-x="0" />
    <glyph glyph-name="android"
      unicode="&#xEA01;"
      horiz-adv-x="750" d="M534.375 437.5L587.5 528.125C590.6250000000001 537.5 587.5 546.875 581.25 553.125C578.125 556.25 571.875 556.25 568.7500000000001 553.125C565.625 553.125 559.3750000000001 550 559.3750000000001 546.875L506.2500000000001 456.25C465.6250000000001 471.875 421.8750000000001 481.25 378.1250000000001 481.25C334.3750000000001 481.25 290.6250000000001 471.875 250.0000000000001 456.25L193.75 546.875C190.625 550 187.5 553.125 184.375 553.125C181.25 553.125 175 553.125 171.875 550C162.5 546.875 159.375 537.5 162.5 528.125L215.625 437.5C171.875 412.5 134.375 378.125 109.375 334.375C81.25 290.625 65.625 243.75 62.5 193.75H687.5C684.375 243.75 668.75 290.625 640.625 334.375C615.625 378.125 578.125 412.5 534.375 437.5zM234.375 275C225 275 215.625 278.125 209.375 284.3750000000001C203.125 290.625 200 300.0000000000001 200 309.3750000000001C200 318.7500000000001 203.125 328.1250000000001 209.375 334.3750000000001C215.625 340.625 225 343.75 234.375 343.75C243.75 343.75 253.125 340.625 259.375 334.375C265.625 328.125 268.7500000000001 318.75 268.7500000000001 309.375C268.7500000000001 300 265.6250000000001 290.625 259.375 284.375C250 278.125 243.75 275 234.375 275zM515.625 275C506.25 275 496.875 278.125 490.625 284.3750000000001C484.375 290.625 481.2499999999999 300.0000000000001 481.2499999999999 309.3750000000001C481.2499999999999 318.7500000000001 484.3749999999999 328.1250000000001 490.625 334.3750000000001C496.8749999999999 340.6250000000001 506.25 343.7500000000001 515.625 343.7500000000001S534.375 340.6250000000001 540.625 334.3750000000001C546.875 328.1250000000001 550 318.7500000000001 550 309.3750000000001C550 300.0000000000001 546.875 290.6250000000001 540.625 284.3750000000001C534.375 278.125 525 275 515.625 275z" />
    <glyph glyph-name="arrow-left-2"
      unicode="&#xEA02;"
      horiz-adv-x="750" d="M209.375 168.75L265.625 228.1249999999999L153.125 337.4999999999999L750 337.4999999999999L750 418.7499999999999L156.25 418.7499999999999L262.5 524.9999999999999L206.25 581.25L0 375L209.375 168.75L209.375 168.75z" />
    <glyph glyph-name="arrow-left"
      unicode="&#xEA03;"
      horiz-adv-x="750" d="M299.0453125 161.8718750000001C293.1078125 161.8718750000001 287.1703125 164.0593750000001 282.4828125 168.7468749999999L92.7953125 358.4343750000001C83.7328125 367.496875 83.7328125 382.496875 92.7953125 391.559375L282.4828125 581.24625C291.5453125 590.30875 306.5453125 590.30875 315.609375 581.24625C324.671875 572.18375 324.671875 557.18375 315.609375 548.12125L142.4828125 374.996875L315.609375 201.8718750000001C324.671875 192.8093749999999 324.671875 177.8093750000001 315.609375 168.7468749999999C311.2328125 164.0593750000001 304.9828125 161.8718750000001 299.0453125 161.8718750000001zM640.621875 351.5625H114.685C101.8725 351.5625 91.2475 362.1875 91.2475 375C91.2475 387.8125 101.8725 398.4375 114.685 398.4375H640.621875C653.434375 398.4375 664.059375 387.8125 664.059375 375C664.059375 362.1875 653.434375 351.5625 640.621875 351.5625z" />
    <glyph glyph-name="b-star"
      unicode="&#xEA04;"
      horiz-adv-x="750" d="M590.625 43.75L375 150L159.375 43.7500000000001L193.75 281.25L28.125 453.125L262.5 493.75L375 706.25L487.5 493.75L721.875 453.125L556.25 281.25L590.625 43.75z" />
    <glyph glyph-name="call-calling"
      unicode="&#xEA05;"
      horiz-adv-x="1000" d="M84.59375 236.25C84.59375 221.25 87.90625 205.84375 95 190.84375S111.25 161.6875 123.34375 148.34375C143.75 125.84375 166.25 109.59375 191.65625 99.1875C216.65625 88.78125 243.75 83.3437499999999 272.90625 83.3437499999999C315.40625 83.3437499999999 360.84375 93.34375 408.7500000000001 113.78125S504.5937500000001 161.6875 552.09375 196.28125A1187.5 1187.5 0 0 1 688.7500000000001 312.9375A1187.5 1187.5 0 0 1 805 449.1875C839.15625 496.6874999999999 866.65625 544.1875 886.65625 591.28125Q916.6562500000002 662.53125 916.6562500000002 727.53125C916.6562500000002 755.84375 911.65625 782.9375 901.65625 807.9375C891.65625 833.34375 875.84375 856.6875 853.75 877.53125C827.09375 903.78125 797.90625 916.6875 767.09375 916.6875C755.40625 916.6875 743.75 914.1875 733.34375 909.1875C722.4999999999999 904.1875 712.90625 896.6875 705.40625 885.84375L608.75 749.59375C601.2500000000001 739.1875 595.84375 729.59375 592.09375 720.4375C588.34375 711.6875 586.2499999999999 702.9375 586.2499999999999 695.03125C586.2499999999999 685.03125 589.1562499999999 675.03125 595 665.4375C600.4062499999999 655.84375 608.34375 645.84375 618.34375 635.84375L649.9999999999999 602.9375C654.5937499999999 598.34375 656.6562499999999 592.9375 656.6562499999999 586.28125C656.6562499999999 582.9375 656.2499999999999 580.03125 655.40625 576.6875C654.15625 573.34375 652.90625 570.84375 652.0937499999999 568.34375C644.59375 554.59375 631.6562499999999 536.6875 613.34375 515.03125C594.5937499999999 493.3437500000001 574.59375 471.2812500000001 552.9062499999999 449.1875000000001A1250 1250 0 0 0 486.6562499999999 387.9375C464.9999999999999 369.59375 447.0937499999999 357.0937500000001 432.9062499999999 349.59375C430.8437499999999 348.78125 428.3437499999999 347.5312500000001 425.4062499999999 346.28125A28.125 28.125 0 0 0 414.9999999999999 344.59375C407.9062499999999 344.59375 402.4999999999999 347.09375 397.9062499999999 351.6875L366.2499999999999 382.9375C355.8437499999999 393.34375 345.8437499999999 401.28125 336.2499999999999 406.28125A56.25 56.25 0 0 1 306.6562499999999 415.0312500000001C298.7499999999999 415.0312500000001 290.4062499999999 413.3437500000001 281.2499999999999 409.5937500000001S262.4999999999999 400.4375000000001 252.0937499999999 393.3437500000001L114.1562499999999 295.4375000000001C103.3437499999998 287.9375000000003 95.8437499999999 279.1875000000001 91.2499999999998 268.7812500000001A84.375 84.375 0 0 1 84.5937499999998 236.2812500000001zM229.15625 625.03125C229.15625 650.03125 248.75 688.375 277.90625 719.625C304.59375 748.375 340 770.875 375 770.875M83.34375 625A291.4375 291.4375 0 0 0 375 916.71875" />
    <glyph glyph-name="comments"
      unicode="&#xEA06;"
      horiz-adv-x="750" d="M265.625 156.25H250C125 156.25 62.5 187.5 62.5 343.75V500C62.5 625 125 687.5 250 687.5H500C625 687.5 687.5 625 687.5 500V343.75C687.5 218.75 625 156.25 500 156.25H484.375C474.6875 156.25 465.3125 151.5625 459.375 143.75L412.5 81.25C391.875 53.75 358.125 53.75 337.5 81.25L290.625 143.75C285.625 150.625 274.0625 156.25 265.625 156.25zM218.75 500H531.25M218.75 343.75H406.25" />
    <glyph glyph-name="credit-card"
      unicode="&#xEA07;"
      horiz-adv-x="750" d="M187.5 281.25H300C309.375 281.25 318.75 284.375 325 293.75C331.25 300 337.5 309.375 337.5 318.7500000000001C337.5 328.1250000000001 334.3750000000001 337.5 325 343.7500000000001C318.7500000000001 350.0000000000001 309.375 356.2500000000001 300 356.2500000000001H187.5C178.125 356.2500000000001 168.75 353.1250000000001 162.5 343.7500000000001C156.25 337.5000000000001 150 328.1250000000001 150 318.7500000000001C150 309.375 153.125 300.0000000000001 162.5 293.75C168.75 284.375 178.125 281.25 187.5 281.25zM637.5 656.25H112.5C81.25 656.25 53.125 643.75 34.375 621.875C12.5 603.125 0 575 0 543.75V206.25C0 175 12.5 146.8750000000001 34.375 128.125C53.125 106.25 81.25 93.75 112.5 93.75H637.5000000000001C668.7500000000001 93.75 696.875 106.25 715.6250000000001 128.125C737.5 150 750.0000000000001 178.1250000000001 750.0000000000001 206.25V543.75C750.0000000000001 575 737.5000000000001 603.125 715.6250000000001 621.875C696.875 643.75 668.75 656.25 637.5 656.25zM675 206.25C675 196.875 671.875 187.5 662.5000000000001 181.25C656.2500000000001 175 646.8750000000001 168.7500000000001 637.5000000000001 168.7500000000001H112.5C103.125 168.7500000000001 93.75 171.8750000000001 87.5 181.25C81.25 187.5 75 196.875 75 206.25V431.25H674.9999999999999V206.25zM675 506.25H75V543.75C75 553.125 78.125 562.5 87.5 568.75C93.75 578.125 103.125 581.25 112.5 581.25H637.5000000000001C646.8750000000001 581.25 656.2500000000001 578.125 662.5000000000001 568.75C668.7500000000001 562.5 675 553.125 675 543.75V506.25z" />
    <glyph glyph-name="currency-irt"
      unicode="&#xEA08;"
      horiz-adv-x="750" d="M93.75 425C109.375 425 121.875 428.125 131.25 431.25C140.625 437.5 150 443.75 159.375 450C165.625 459.375 171.875 468.75 175 478.125C178.125 487.5000000000001 181.25 500 181.25 509.375H134.375C118.75 509.375 103.125 512.5 93.75 515.625C81.25 518.75 71.875 525 65.625 531.25C59.375 537.5 56.25 546.875 53.125 556.25C50 565.625 50 578.125 50 590.625C50 603.125 53.125 615.625 56.25 625C59.375 634.375 62.5 646.875 71.875 653.125C78.125 662.5 87.5 668.75 96.875 671.875C106.25 678.125 118.75 681.25 131.25 681.25C140.625 681.25 153.125 678.125 162.5 675C171.875 671.875 181.25 665.625 187.5 656.25C193.75 650 200 637.5 206.25 625C209.375 612.5 212.5 596.875 212.5 581.25V540.625H259.375C262.5 540.625 265.625 540.625 268.75 537.5C271.875 534.375 271.875 531.25 271.875 525C271.875 518.75 271.875 515.625 268.75 512.5C268.75 509.375 265.625 509.375 259.375 509.375H212.5C212.5 493.75 209.375 478.125 203.125 462.5C196.875 450 190.625 437.5 178.125 428.125C168.75 415.625 156.25 406.25 143.75 400C128.125 393.7500000000001 112.5 390.625 96.875 390.625H43.75L40.625 425H93.75zM81.25 590.625C81.25 581.25 81.25 575 84.375 568.75C87.5 562.5 90.625 559.375 93.75 553.125C96.875 550 103.125 546.875 112.5 543.75C118.75 540.625 128.125 540.625 140.625 540.625H184.375V581.25C184.375 606.25 178.125 621.875 168.75 634.375C159.375 643.75 146.875 650 128.125 650C112.5 650 103.125 643.75 93.75 634.375C84.375 621.875 81.25 609.375 81.25 590.625zM343.75 543.75C346.875 543.75 350 543.75 353.125 540.625C356.25 537.5 356.25 534.375 356.25 528.125C356.25 521.875 356.25 518.75 353.125 515.625C353.125 512.5 350.0000000000001 512.5 343.75 512.5H262.5C259.375 512.5 256.2500000000001 512.5 253.125 515.625C250 515.625 250 521.875 250 528.125C250 531.25 250 537.5 253.125 540.625C253.125 543.75 256.25 543.75 262.5 543.75H343.75zM425 543.75C428.125 543.75 431.25 543.75 434.375 540.625C437.5 537.5 437.5 534.375 437.5 528.125C437.5 521.875 437.5 518.75 434.375 515.625C434.375 512.5 431.25 512.5 425 512.5H343.75C340.625 512.5 337.5 512.5 334.375 515.625C331.25 518.75 331.25 521.875 331.25 528.125C331.25 534.375 331.25 537.5 334.375 540.625C334.375 543.75 337.5 543.75 343.75 543.75H425zM506.25 543.75C509.375 543.75 512.5 543.75 515.625 540.625C518.75 537.5 518.75 534.375 518.75 528.125C518.75 521.875 518.75 518.75 515.625 515.625C515.625 512.5 512.5 512.5 506.25 512.5H425C421.875 512.5 418.75 512.5 415.625 515.625C412.5 518.75 412.5 521.875 412.5 528.125C412.5 534.375 412.5 537.5 415.625 540.625C415.625 543.75 418.75 543.75 425 543.75H506.25zM587.5 543.75C590.6250000000001 543.75 593.75 543.75 596.875 540.625C600.0000000000001 537.5 600.0000000000001 534.375 600.0000000000001 528.125C600.0000000000001 521.875 600.0000000000001 518.75 596.875 515.625C596.875 512.5 593.75 512.5 587.5 512.5H506.25C503.1249999999999 512.5 500 512.5 496.8749999999999 515.625C493.7499999999999 518.75 493.7499999999999 521.875 493.7499999999999 528.125C493.7499999999999 534.375 493.7499999999999 537.5 496.8749999999999 540.625C496.8749999999999 543.75 499.9999999999999 543.75 506.25 543.75H587.5zM631.25 543.75C643.7499999999999 543.75 653.125 546.875 662.5 553.125C671.875 559.375 674.9999999999999 568.75 674.9999999999999 581.25V650H706.2499999999999V581.25C706.2499999999999 559.375 700 540.625 687.4999999999999 528.125C674.9999999999999 515.625 656.2499999999999 509.375 634.3749999999999 509.375H587.4999999999999C584.3749999999999 509.375 581.2499999999999 509.375 578.1249999999999 512.5C574.9999999999999 515.625 574.9999999999999 518.75 574.9999999999999 525C574.9999999999999 531.25 574.9999999999999 534.375 578.1249999999999 537.5C578.1249999999999 540.625 581.2499999999999 540.625 587.4999999999999 540.625H631.25zM709.375 715.625H668.75V750H709.375V715.625zM646.875 715.625H606.25V750H646.875V715.625zM312.5 131.25C312.5 112.4999999999999 309.375 96.8749999999999 303.125 81.2499999999999C296.875 65.6249999999999 290.625 53.125 278.125 40.6249999999999C268.75 28.125 256.25 18.7499999999999 240.625 12.5C225 6.25 209.375 3.1249999999999 190.625 3.1249999999999H162.5C125 3.1249999999999 96.875 15.6249999999999 78.125 37.5C56.25 59.375 46.875 90.625 46.875 131.25V218.75H78.125V134.375C78.125 118.75 81.25 106.2500000000001 84.375 96.875C87.5 84.3750000000001 93.75 75.0000000000001 100 68.7500000000001C106.25 59.3750000000001 115.625 53.1250000000001 128.125 50C140.625 46.875 153.125 43.7500000000001 168.75 43.7500000000001H187.5C203.125 43.7500000000001 215.625 46.8750000000001 228.125 53.1250000000001C240.625 46.875 250 53.125 256.25 62.5C265.625 71.875 268.75 81.25 275 93.75C278.125 103.125 281.25 115.625 281.25 128.125V259.375H312.5V131.25zM193.75 271.875H153.125V306.25H193.75V271.875zM437.5 118.75C428.125 118.75 421.875 118.75 412.5 121.8750000000001C403.125 125.0000000000001 396.875 128.125 390.625 134.375C384.375 140.625 381.25 146.875 375 156.25C375 168.75 375 181.25 375 196.875V425.0000000000001H406.25V203.125C406.25 190.625 409.375 178.125 415.625 168.75C421.875 159.3749999999999 431.25 156.25 446.875 156.25H456.2500000000001C462.5 156.25 465.6250000000001 150 465.6250000000001 140.625C465.6250000000001 128.125 462.5000000000001 121.875 456.2500000000001 121.875H437.5zM459.375 153.125C471.875 153.125 481.2499999999999 156.25 487.5 162.5C493.7499999999999 168.75 496.875 178.125 496.875 187.5V206.25C496.875 234.375 503.1250000000001 256.2500000000001 518.75 271.8750000000001C534.375 287.5000000000001 553.1250000000001 296.8750000000001 581.25 296.8750000000001C593.75 296.8750000000001 606.2500000000001 293.7500000000001 615.6250000000001 290.6250000000001C625.0000000000001 287.5000000000001 634.3750000000001 281.2500000000001 640.6250000000001 271.8750000000001C646.8750000000001 262.5000000000001 653.1250000000001 253.1250000000001 656.2500000000001 243.7500000000001C659.3750000000001 234.3750000000001 662.5000000000001 221.8750000000001 662.5000000000001 209.3750000000001C662.5000000000001 181.2500000000001 656.2500000000001 159.375 640.6250000000001 143.75C625.0000000000001 128.125 606.2500000000001 118.75 581.2500000000001 118.75C568.7500000000002 118.75 556.2500000000001 121.8750000000001 543.7500000000002 125C531.2500000000002 131.25 521.8750000000002 140.625 515.6250000000002 153.125C512.5000000000002 146.875 509.3750000000002 140.625 506.2500000000002 134.3749999999999C503.1250000000002 131.2499999999999 496.8750000000002 124.9999999999999 493.7500000000002 124.9999999999999C490.6250000000002 121.8749999999999 484.3750000000002 121.8749999999999 478.1250000000002 118.7499999999999C471.8750000000002 118.7499999999999 468.7500000000002 118.7499999999999 462.5000000000002 118.7499999999999H453.1250000000002C450.0000000000002 118.7499999999999 446.8750000000002 118.7499999999999 443.7500000000002 121.875C440.6250000000002 125 440.6250000000002 128.1249999999999 440.6250000000002 134.3749999999999C440.6250000000002 140.6249999999999 440.6250000000002 143.7499999999999 443.7500000000002 146.8749999999999C443.7500000000002 149.9999999999999 446.8750000000001 149.9999999999999 453.1250000000002 149.9999999999999H459.375zM631.25 206.25C631.25 221.875 628.1249999999999 237.5 618.75 246.8750000000001C612.5 256.2500000000001 596.875 262.5000000000001 581.25 262.5000000000001C546.875 262.5000000000001 531.25 243.75 531.25 203.1250000000001C531.25 187.5000000000001 534.375 175.0000000000001 543.75 165.6250000000001C553.125 156.2500000000001 565.6249999999999 153.1250000000002 581.2499999999999 153.1250000000002C596.8749999999999 153.1250000000002 609.3749999999999 156.2500000000002 618.7499999999999 165.6250000000001C628.125 178.125 631.25 190.625 631.25 206.25z" />
    <glyph glyph-name="demo-icon"
      unicode="&#xEA09;"
      horiz-adv-x="750" d="M62.5 375A312.5 312.5 0 0 1 687.5 375A312.5 312.5 0 0 1 62.5 375M281.25 375L343.75 312.5L468.75 437.5" />
    <glyph glyph-name="download"
      unicode="&#xEA0A;"
      horiz-adv-x="750" d="M531.25 93.75H218.75C150 93.75 93.75 150 93.75 218.75V250C93.75 268.75 106.25 281.25 125 281.25S156.25 268.75 156.25 250V218.75C156.25 184.375 184.375 156.25 218.75 156.25H531.25C565.625 156.25 593.75 184.375 593.75 218.75V250C593.75 268.75 606.25 281.25 625 281.25S656.25 268.75 656.25 250V218.75C656.25 150 600 93.75 531.25 93.75zM375 218.75C371.875 218.75 365.625 218.75 362.5 221.875C359.375 221.875 356.25 225.0000000000001 353.125 228.125H353.125C353.125 228.125 353.125 228.125 353.125 228.125H353.125C353.125 228.125 353.125 228.125 353.125 228.125C353.125 228.125 353.125 228.125 353.125 228.125L353.125 228.125C353.125 228.125 353.125 228.125 353.125 228.125C353.125 228.125 353.125 228.125 353.125 228.125C353.125 228.125 353.125 228.125 353.125 228.125L353.125 228.125L353.125 228.125L353.125 228.125L228.125 353.125C215.625 365.6250000000001 215.625 384.375 228.125 396.8750000000001C240.625 409.3750000000001 259.375 409.3750000000001 271.875 396.8750000000001L343.75 325.0000000000001V625C343.75 643.75 356.25 656.25 375 656.25S406.25 643.75 406.25 625V325L478.125 396.875C490.6250000000001 409.375 509.375 409.375 521.875 396.875C534.3749999999999 384.375 534.3749999999999 365.625 521.875 353.125L396.875 228.1249999999999L396.875 228.1249999999999L396.875 228.1249999999999L396.875 228.1249999999999C396.875 228.1249999999999 396.875 228.1249999999999 396.875 228.1249999999999C396.875 228.1249999999999 396.875 228.1249999999999 396.875 228.1249999999999C396.875 228.1249999999999 396.875 228.1249999999999 396.875 228.1249999999999L396.875 228.1249999999999C396.875 228.1249999999999 396.875 228.1249999999999 396.875 228.1249999999999C396.875 228.1249999999999 396.875 228.1249999999999 396.875 228.1249999999999H396.875C396.875 228.1249999999999 396.875 228.1249999999999 396.875 228.1249999999999H396.875C396.875 228.1249999999999 396.875 228.1249999999999 396.875 228.1249999999999C396.875 228.1249999999999 396.875 228.1249999999999 396.875 228.1249999999999C396.875 228.1249999999999 396.875 228.1249999999999 396.875 228.1249999999999C393.75 224.9999999999999 390.625 221.8749999999999 387.5 221.8749999999999C384.375 218.75 378.125 218.75 375 218.75z" />
    <glyph glyph-name="edit"
      unicode="&#xEA0B;"
      horiz-adv-x="750" d="M468.75 39.0625H281.25C111.5625 39.0625 39.0625 111.5625 39.0625 281.25V468.75C39.0625 638.4375 111.5625 710.9375 281.25 710.9375H343.75C356.5625 710.9375 367.1875 700.3125 367.1875 687.5C367.1875 674.6875 356.5625 664.0625 343.75 664.0625H281.25C137.1875 664.0625 85.9375 612.8125 85.9375 468.75V281.25C85.9375 137.1875 137.1875 85.9375 281.25 85.9375H468.75C612.8125 85.9375 664.0625 137.1875 664.0625 281.25V343.75C664.0625 356.5625 674.6875 367.1875 687.5 367.1875C700.3125 367.1875 710.9375 356.5625 710.9375 343.75V281.25C710.9375 111.5625 638.4375 39.0625 468.75 39.0625zM265.6046875 197.1843749999999C246.5421875 197.1843749999999 229.0421875 204.0593750000001 216.2296875 216.5593750000001C200.9171875 231.871875 194.3546875 254.059375 197.7921875 277.496875L211.2296875 371.5593750000001C213.7296875 389.6843750000001 225.6046875 413.1218750000001 238.4171875 425.934375L484.665625 672.185625C546.8531250000001 734.37315625 609.9781250000001 734.37315625 672.165625 672.185625C706.228125 638.123125 721.5406250000001 603.4356250000001 718.415625 568.748125C715.603125 540.6231250000001 700.603125 513.1231250000001 672.165625 484.998125L425.9156250000001 238.7468750000001C413.1031250000001 225.9343750000001 389.6656250000001 214.0593750000001 371.5406250000001 211.5593750000001L277.4796875 198.1218750000001C273.4171875 197.1843749999999 269.3546875 197.1843749999999 265.6046875 197.1843749999999zM517.790625 639.060625L271.5421875 392.809375C265.6046875 386.871875 258.7296875 373.121875 257.4796875 364.996875L244.0421875 270.934375C242.7921875 261.871875 244.6671875 254.3718750000001 249.3546875 249.684375C254.0421875 244.996875 261.5421875 243.1218750000001 270.6046875 244.371875L364.665625 257.809375C372.790625 259.059375 386.8531250000001 265.934375 392.4781250000001 271.871875L638.728125 518.123125C659.0406250000001 538.435625 669.6656250000001 556.5606250000001 671.228125 573.4356250000001C673.103125 593.748125 662.478125 615.310625 638.728125 639.373125C588.7281250000001 689.373125 554.353125 675.310625 517.790625 639.060625zM620.3 442.8193750000001C618.1125 442.8193750000001 615.925 443.1318750000001 614.05 443.756875C531.8625000000001 466.881875 466.55 532.194375 443.425 614.381875C439.9875 626.881875 447.175 639.694375 459.675 643.444375C472.175 646.881875 484.9875 639.694375 488.425 627.194375C507.1750000000001 560.631875 559.9875 507.819375 626.5500000000001 489.069375C639.05 485.631875 646.2375000000001 472.506875 642.8000000000001 460.006875C639.9875000000001 449.381875 630.6125000000001 442.8193750000001 620.3 442.8193750000001z" />
    <glyph glyph-name="email"
      unicode="&#xEA0C;"
      horiz-adv-x="750" d="M531.25 656.25H218.75C125 656.25 62.5 609.375 62.5 500V281.25C62.5 171.875 125 125 218.75 125H330.3125C348.75 125 363.75 141.25 361.25 159.6875C358.125 181.875 358.75 205 363.4375 228.75C380 310 446.875 374.6875 528.75 388.125A203.4375 203.4375 0 0 0 643.1250000000001 374.0625C664.0625000000001 365.0000000000001 687.5 379.375 687.5 402.1875000000001V500C687.5 609.375 625 656.25 531.25 656.25zM545.9375 481.5625L448.125 403.4375C427.5 386.875 401.25 378.7500000000001 375 378.7500000000001C348.75 378.7500000000001 322.1875 386.875 301.875 403.4375L204.0625 481.5625A24 24 0 0 0 200.3125 514.6875C208.4375 524.6875 223.125 526.5625 233.125 518.4375L330.9375 440.3125C354.6875 421.25 395 421.25 418.75 440.3125L516.5625 518.4375C526.5625 526.5625 541.5625000000001 525 549.3750000000001 514.6875C557.5000000000001 504.375 555.9375000000001 489.6875 545.9375000000001 481.5625zM562.5 343.75C476.25 343.75 406.25 274.0625 406.25 187.5C406.25 101.2500000000001 476.25 31.25 562.5 31.25C649.0625 31.25 718.75 101.2500000000001 718.75 187.5C718.75 274.0625 649.0625 343.75 562.5 343.75zM626.5625 201.5625L615 190.3125L546.875 121.875C543.75 119.0625 537.8125 115.9374999999999 533.4375 115.3124999999999L502.8125 110.9374999999999C491.875 109.3749999999999 484.0625 117.1874999999999 485.625 128.1249999999999L490 158.75A27.1875 27.1875 0 0 0 496.5625 172.1874999999999L564.6875 240L575.9375 251.5625C583.4374999999999 259.0625 591.875 264.0625 600.625 264.0625C608.1249999999999 264.0625 616.5625 260.625 625.9374999999999 251.5625C646.875 231.25 640.3125 215.3125 626.5624999999999 201.5625z" />
    <glyph glyph-name="fa-facebook"
      unicode="&#xEA0D;"
      horiz-adv-x="750" d="M738.28125 375C738.28125 575.68359375 575.68359375 738.28125 375 738.28125S11.71875 575.68359375 11.71875 375C11.71875 193.6816406249999 144.5654296875 43.3886718750001 318.2373046875 16.11328125V269.9853515625001H225.9521484375V375H318.2373046875V455.0390625000001C318.2373046875 546.0791015625 372.4365234375 596.3671875 455.44921875 596.3671875C495.205078125 596.3671875 536.77734375 589.27734375 536.77734375 589.27734375V499.9218750000001H490.9570312499999C445.83984375 499.9218750000001 431.7626953125 471.9140625000001 431.7626953125 443.1884765625001V375H532.5146484375L516.4013671875 269.9853515625001H431.7626953125V16.11328125C605.4345703125 43.3886718750001 738.28125 193.681640625 738.28125 375z" />
    <glyph glyph-name="fa-instagram"
      unicode="&#xEA0E;"
      horiz-adv-x="750" d="M468.75 39.0625H281.25C111.5625 39.0625 39.0625 111.5625 39.0625 281.25V468.75C39.0625 638.4375 111.5625 710.9375 281.25 710.9375H468.75C638.4375 710.9375 710.9375 638.4375 710.9375 468.75V281.25C710.9375 111.5625 638.4375 39.0625 468.75 39.0625zM281.25 664.0625C137.1875 664.0625 85.9375 612.8125 85.9375 468.75V281.25C85.9375 137.1875 137.1875 85.9375 281.25 85.9375H468.75C612.8125 85.9375 664.0625 137.1875 664.0625 281.25V468.75C664.0625 612.8125 612.8125 664.0625 468.75 664.0625H281.25zM375 242.1875A133.125 133.125 0 0 0 242.1875 375A133.125 133.125 0 0 0 375 507.8125A133.125 133.125 0 0 0 507.8125 375A133.125 133.125 0 0 0 375 242.1875zM375 460.9375C327.5 460.9375 289.0625 422.5 289.0625 375S327.5 289.0625 375 289.0625S460.9375 327.5 460.9375 375S422.5 460.9375 375 460.9375zM531.25 515.625C527.1875 515.625 523.125 516.5625 519.375 518.125S512.1875 521.875 509.0625000000001 524.6875C506.2500000000001 527.8125 503.7500000000001 531.25 502.1875000000001 535A30.8125 30.8125 0 0 0 500 546.875C500 550.9375 500.625 555 502.1875 558.75C504.0624999999999 562.8125 506.25 565.9375 509.0625 569.0625C510.625 570.3125 512.1875 571.875 513.7499999999999 572.8125C515.6249999999999 574.0625 517.5 575 519.3749999999999 575.625A31.4375 31.4375 0 0 0 553.4374999999999 569.0625C556.2499999999999 565.9375 558.4374999999999 562.8125 559.9999999999999 558.75C561.5625 555 562.4999999999999 550.9375 562.4999999999999 546.875S561.5624999999999 538.75 559.9999999999999 535S556.2499999999999 527.8125 553.4374999999999 524.6875C550.3124999999999 521.875 546.8749999999999 519.6875 543.125 518.125C539.3749999999999 516.5625 535.3125 515.625 531.25 515.625z" />
    <glyph glyph-name="fa-linkedin"
      unicode="&#xEA0F;"
      horiz-adv-x="750" d="M696.4285714285714 703.125H53.4040178571429C23.9397321428571 703.125 0 681.884765625 0 655.810546875V94.189453125C0 68.115234375 23.9397321428571 46.875 53.4040178571429 46.875H696.4285714285714C725.8928571428571 46.875 750 68.115234375 750 94.189453125V655.810546875C750 681.884765625 725.8928571428571 703.125 696.4285714285714 703.125zM226.6741071428572 140.625H115.5133928571429V453.8085937500001H226.8415178571429V140.625zM171.09375 496.58203125C135.4352678571429 496.58203125 106.640625 521.923828125 106.640625 552.978515625S135.4352678571429 609.375 171.09375 609.375C206.5848214285714 609.375 235.546875 584.033203125 235.546875 552.978515625C235.546875 521.77734375 206.7522321428571 496.58203125 171.09375 496.58203125zM643.359375 140.625H532.1986607142857V292.96875C532.1986607142857 329.296875 531.3616071428571 376.025390625 474.4419642857143 376.025390625C416.5178571428572 376.025390625 407.6450892857143 336.474609375 407.6450892857143 295.6054687500001V140.625H296.484375V453.8085937500001H403.125V411.0351562500001H404.6316964285715C419.53125 435.64453125 455.859375 461.5722656250001 509.9330357142857 461.5722656250001C622.4330357142858 461.5722656250001 643.359375 396.6796875000001 643.359375 312.3046875V140.625z" />
    <glyph glyph-name="fa-telegram"
      unicode="&#xEA10;"
      horiz-adv-x="750" d="M375 738.28125C167.8926411290323 738.28125 0 575.63525390625 0 375S167.8926411290323 11.71875 375 11.71875S750 174.3647460937501 750 375S582.1073588709677 738.28125 375 738.28125zM548.8185483870967 491.220703125C543.1754032258065 433.77685546875 518.7565524193548 294.3779296875 506.328629032258 230.0390625C501.0725806451612 202.81640625 490.7207661290323 193.6874999999999 480.7016129032258 192.7954101562499C458.9274193548387 190.8530273437499 442.3881048387097 206.7363281249999 421.2958669354839 220.1308593749999C388.2913306451612 241.0898437499999 369.6456653225806 254.1372070312499 337.6073588709677 274.5893554687499C300.5836693548387 298.2246093749999 324.5851814516129 311.2104492187499 345.6849798387097 332.4506835937499C351.2071572580645 338.0068359374999 447.1572580645161 422.5532226562499 449.0141129032258 430.2231445312499C449.2454637096774 431.1826171874999 449.4677419354839 434.7641601562499 447.2691532258065 436.6450195312499S441.8407258064517 437.8886718749999 439.5045362903226 437.3774414062499Q434.5403225806452 436.2846679687499 281.3271169354839 336.09521484375Q258.8800403225807 321.16259765625 240.6607862903226 321.54345703125C227.2711693548388 321.8232421874999 201.515625 328.87646484375 182.3679435483871 334.9072265625C158.8835685483871 342.3017578125 140.218245967742 346.21142578125 141.8437500000001 358.77099609375Q143.1139112903227 368.58544921875 169.741935483871 378.83935546875Q333.7227822580645 448.05029296875 388.4334677419355 470.0991210937499C492.5745967741936 512.0625 514.2142137096774 519.3515625 528.3190524193549 519.5947265625C531.421875 519.64453125 538.3578629032259 518.900390625 542.8503024193549 515.36865234375A15.804435483871 15.310546875 0 0 0 548.188004032258 505.53076171875A66.1769153225806 64.10888671875 0 0 0 548.8185483870967 491.220703125z" />
    <glyph glyph-name="fa-twitter"
      unicode="&#xEA11;"
      horiz-adv-x="750" d="M672.9052734375001 527.759765625C673.38134765625 521.09765625 673.38134765625 514.43408203125 673.38134765625 507.77197265625C673.38134765625 304.5688476562501 518.71875 70.43115234375 236.0405273437501 70.43115234375C148.95263671875 70.43115234375 68.05224609375 95.6542968749999 0 139.43408203125C12.37353515625 138.00732421875 24.26953125 137.53125 37.119140625 137.53125C108.97705078125 137.53125 175.12646484375 161.80078125 227.9501953125001 203.203125C160.3740234375 204.63134765625 103.7431640625 248.8886718750001 84.2314453125 309.8027343750001C93.75 308.3759765625001 103.26708984375 307.4238281250001 113.26171875 307.4238281250001C127.06201171875 307.4238281250001 140.86376953125 309.3281250000001 153.7119140625 312.6577148437501C83.28076171875 326.9355468750001 30.45556640625 388.8002929687501 30.45556640625 463.5146484375001V465.4174804687502C50.91796875 453.9960937500002 74.71435546875 446.8579101562502 99.9345703125 445.9072265625002C58.5322265625 473.5092773437502 31.40771484375 520.6215820312501 31.40771484375 573.9213867187501C31.40771484375 602.4741210937501 39.0205078125 628.6479492187501 52.34619140625 651.4907226562501C128.0126953125 558.2167968750001 241.7504882812501 497.3041992187501 369.2871093750001 490.6406250000002C366.9082031250001 502.0620117187502 365.47998046875 513.9580078125002 365.47998046875 525.8554687500002C365.47998046875 610.5644531250002 434.00830078125 679.5673828125002 519.19189453125 679.5673828125002C563.44921875 679.5673828125002 603.4233398437501 661.0078125000002 631.50146484375 631.0268554687502C666.240234375 637.6889648437502 699.55224609375 650.5385742187502 729.05859375 668.1459960937502C717.6357421875 632.4536132812501 693.3662109375001 602.4726562500002 661.4824218750001 583.4384765625002C692.41552734375 586.7680664062502 722.396484375 595.3359375000002 749.9970703125001 607.2319335937502C729.0615234375001 576.7763671875002 702.8862304687501 549.6518554687502 672.9052734375001 527.7597656250001z" />
    <glyph glyph-name="fa-whatsapp"
      unicode="&#xEA12;"
      horiz-adv-x="750" d="M686.875 393.4375C676.25 574.6875 511.5625000000001 714.375 321.875 683.125C191.25 661.5625 86.5625 555.625 66.25 425C54.375 349.375 70 277.8125 104.0625 218.75L76.25 115.3125C70 91.875 91.5625 70.625 114.6875 77.1875000000001L216.5625 105.3125C262.8125 78.125 316.875 62.5 374.6875 62.5C550.9375 62.5 697.1875000000001 217.8125 686.875 393.4375zM527.5000000000001 258.7500000000001A71.21875 71.21875 0 0 0 491.2500000000001 224.375C481.8750000000001 220.3125 471.5625000000001 218.4375 460.6250000000001 218.4375C444.6875000000001 218.4375 427.5000000000001 222.1875 409.6875000000001 230A286.25 286.25 0 0 0 355.9375000000001 260.9375C337.8125000000001 274.0625 320.9375000000001 288.75 304.6875000000001 304.6875C288.4375000000001 320.9375 274.0625000000001 338.125 260.9375000000001 355.9375C248.1250000000001 373.75 237.8125000000001 391.5625000000001 230.3125000000001 409.3750000000001C222.8125 427.1875000000001 219.0625 444.3750000000001 219.0625 460.6250000000001C219.0625 471.2500000000001 220.9375 481.5625000000001 224.6875 490.9375000000001C228.4375000000001 500.6250000000001 234.375 509.3750000000001 242.8125000000001 517.1875000000001C252.8125 527.1875000000001 263.7500000000001 531.875 275.3125 531.875C279.6875000000001 531.875 284.0625 530.9375 288.125 529.0625000000001C292.1875000000001 527.1875000000001 295.9375 524.375 298.75 520.3125L335 469.0625000000001C337.8125 465 340 461.5625000000001 341.25 458.1250000000001C342.8125 454.6875000000001 343.4375 451.5625000000001 343.4375 448.4375000000001C343.4375 444.6875000000001 342.1875000000001 440.9375000000001 340 437.1875000000001S335 429.6875000000001 331.2500000000001 425.9375000000001L319.375 413.4375000000001C317.5 411.5625000000001 316.875 409.6875000000001 316.875 407.1875000000001C316.875 405.9375000000001 317.1875 404.6875000000001 317.5 403.4375000000001C318.125 402.1875000000001 318.4375 401.2500000000001 318.75 400.3125000000001C321.5625 395.0000000000001 326.5625 388.4375000000001 333.4375 380.3125000000001A421.3125 421.3125 0 0 1 381.25 332.5000000000001C389.375 325.6250000000001 396.25 320.9375000000002 401.5625 318.1250000000001C402.5 317.8125000000001 403.4375 317.1875000000001 404.375 316.8750000000001C405.625 316.2500000000001 406.875 316.2500000000001 408.4375 316.2500000000001C411.25 316.2500000000001 413.125 317.1875000000001 415.0000000000001 319.0625000000001L426.8750000000001 330.9375000000002C430.9375000000001 335.0000000000002 434.6875000000001 337.8125000000002 438.1250000000001 339.6875000000001C441.875 341.8750000000002 445.3125000000001 343.1250000000001 449.375 343.1250000000001C452.5 343.1250000000001 455.625 342.5000000000001 459.0625000000001 340.9375000000001C462.5 339.3750000000001 466.2500000000001 337.5000000000001 470.0000000000001 334.6875000000001L521.875 297.8125000000002C525.9375 295.0000000000002 528.7499999999999 291.5625000000002 530.625 287.8125000000001C532.1875 283.7500000000001 533.125 280.0000000000001 533.125 275.6250000000001C531.25 270.3125000000001 529.9999999999999 264.3750000000001 527.5 258.7500000000002z" />
    <glyph glyph-name="fa-xmark-solid"
      unicode="&#xEA13;"
      horiz-adv-x="750" d="M727.96875 529.39453125C757.265625 547.705078125 757.265625 577.44140625 727.96875 595.751953125S651.09375 614.0625 621.796875 595.751953125L375 441.3574218750001L127.96875 595.60546875C98.671875 613.916015625 51.09375 613.916015625 21.796875 595.60546875S-7.5 547.55859375 21.796875 529.248046875L268.828125 375L22.03125 220.6054687500001C-7.265625 202.2949218750001 -7.265625 172.55859375 22.03125 154.248046875S98.90625 135.9375 128.203125 154.248046875L375 308.642578125L622.0312499999999 154.3945312499999C651.3281249999999 136.0839843749999 698.90625 136.0839843749999 728.203125 154.3945312499999S757.5 202.44140625 728.203125 220.751953125L481.171875 375L727.96875 529.39453125z" />
    <glyph glyph-name="fa-youtube"
      unicode="&#xEA14;"
      horiz-adv-x="750" d="M715.6966145833333 568.23779296875C707.5182291666665 602.88134765625 683.4218749999999 630.16552734375 652.8268229166666 639.4248046875C597.37109375 656.25 375 656.25 375 656.25S152.6302083333333 656.25 97.1731770833333 639.4248046875C66.578125 630.1640625 42.4817708333333 602.88134765625 34.3033854166667 568.23779296875C19.4440104166667 505.4443359375 19.4440104166667 374.431640625 19.4440104166667 374.431640625S19.4440104166667 243.4189453125 34.3033854166667 180.62548828125C42.4817708333334 145.98193359375 66.578125 119.83447265625 97.1731770833333 110.5751953125C152.6302083333333 93.75 375 93.75 375 93.75S597.3697916666667 93.75 652.8268229166667 110.5751953125C683.4218750000001 119.83447265625 707.5182291666667 145.98193359375 715.6966145833334 180.62548828125C730.5559895833334 243.4189453125 730.5559895833334 374.431640625 730.5559895833334 374.431640625S730.5559895833334 505.4443359375 715.6966145833334 568.23779296875zM302.2721354166666 255.48193359375V493.3813476562499L488.1302083333333 374.4287109375L302.2721354166666 255.48193359375z" />
    <glyph glyph-name="heart"
      unicode="&#xEA15;"
      horiz-adv-x="750" d="M651.25 605.9375A171.875 171.875 0 0 1 408.125 605.9375L375 572.8125L341.875 605.9375A171.875 171.875 0 0 1 98.75 362.8125L131.875 329.6875L375 86.5625L618.125 329.6875L651.25 362.8125000000001A171.875 171.875 0 0 1 651.25 605.9375" />
    <glyph glyph-name="home"
      unicode="&#xEA16;"
      horiz-adv-x="750" d="M93.75 468.75L375 687.5L656.25 468.75V125A62.5 62.5 0 0 0 593.75 62.5H156.25A62.5 62.5 0 0 0 93.75 125zM281.25 62.5V375H468.75V62.5" />
    <glyph glyph-name="info"
      unicode="&#xEA17;"
      horiz-adv-x="750" d="M62.5 375A312.5 312.5 0 0 1 687.5 375A312.5 312.5 0 0 1 62.5 375M375 250V375M375 500" />
    <glyph glyph-name="instagram"
      unicode="&#xEA18;"
      horiz-adv-x="750" d="M234.375 593.75C191.2278125 593.75 156.25 558.7721875 156.25 515.625C156.25 472.4778125 191.2278125 437.5 234.375 437.5C277.5221875000001 437.5 312.5 472.4778125 312.5 515.625C312.5 558.7721875 277.5221875000001 593.75 234.375 593.75zM140.625 750C62.96 750 0 687.04 0 609.375V421.875C0 344.209375 62.96 281.25 140.625 281.25H328.125C405.7906250000001 281.25 468.75 344.209375 468.75 421.875V609.375C468.75 687.04 405.7906250000001 750 328.125 750H140.625zM125 515.625C125 576.03125 173.96875 625 234.375 625C294.78125 625 343.75 576.03125 343.75 515.625C343.75 455.21875 294.78125 406.25 234.375 406.25C173.96875 406.25 125 455.21875 125 515.625zM343.75 625H375V656.25H343.75V625z" />
    <glyph glyph-name="ios"
      unicode="&#xEA19;"
      horiz-adv-x="750" d="M90.625 531.25C75 531.25 62.5 518.75 62.5 503.125C62.5 500 62.5 496.875 65.625 493.7499999999999C65.625 490.625 68.75 487.5 71.875 484.3749999999999C75 481.2499999999999 78.125 481.2499999999999 81.25 478.1249999999999C84.375 478.1249999999999 87.5 475 90.625 475C106.25 475 118.75 487.5 118.75 503.125C118.75 518.75 106.25 531.25 90.625 531.25zM290.625 528.125C203.125 528.125 146.875 468.75 146.875 375C146.875 278.125 203.125 218.75 287.5 218.75C375 218.75 428.125 278.125 428.125 375C431.25 468.75 375 528.125 290.625 528.125zM571.875 528.125C506.25 528.125 459.3750000000001 490.6250000000001 459.3750000000001 437.5C459.3750000000001 393.75 484.3750000000001 368.75 540.625 356.25L578.125 346.875C615.625 337.5 631.25 325 631.25 303.125C631.25 278.125 606.25 259.375 568.75 259.375C531.25 259.375 503.1249999999999 278.125 500 306.25H446.875C450 250 493.75 218.75 562.5 218.75C634.375 218.75 681.25 253.125 681.25 312.5C681.25 356.25 656.25 381.25 593.75 396.875L559.375 403.125C521.875 412.5 506.25 425 506.25 443.75C506.25 468.75 528.125 484.375 562.5 484.375C596.875 484.375 618.75 468.75 621.875 440.625H671.875C681.25 493.75 637.5 528.125 571.875 528.125zM290.625 484.375C343.75 484.375 378.1250000000001 440.625 378.1250000000001 375C378.1250000000001 309.375 343.7500000000001 265.625 290.625 265.625C237.5000000000001 265.625 203.125 309.375 203.125 375C203.125 440.625 234.375 484.375 290.625 484.375zM65.625 443.75V225H118.75V443.75H65.625L65.625 443.75z" />
    <glyph glyph-name="keyboard"
      unicode="&#xEA1A;"
      horiz-adv-x="1000" d="M312.5 833.3125H687.5C713.34375 833.3125 736.25 832.46875 756.65625 829.5625C866.2500000000001 817.46875 895.84375 765.8125 895.84375 624.96875V374.9687500000001C895.84375 234.1562500000001 866.2500000000001 182.4687500000001 756.65625 170.4062500000001C736.2500000000001 167.46875 713.34375 166.6562500000001 687.5 166.6562500000001H312.5C286.65625 166.6562500000001 263.75 167.46875 243.34375 170.4062500000001C133.75 182.4687500000001 104.15625 234.1562500000001 104.15625 374.9687500000001V624.96875C104.15625 765.8125 133.75 817.4687500000001 243.34375 829.5625C263.75 832.46875 286.65625 833.3125 312.5 833.3125M562.5 583.3125H708.34375M291.65625 354.1875H708.34375M420.625 583.34375H420.96875M295.625 583.34375H295.96875" />
    <glyph glyph-name="lamp"
      unicode="&#xEA1B;"
      horiz-adv-x="750" d="M93.75 468.75C93.75 515.625 106.25 559.375 128.125 603.125C150 643.75 181.25 678.125 221.875 703.125C259.375 728.125 303.125 743.75 350 750C396.875 753.125 443.75 746.875 484.375 728.125C528.125 709.375 565.625 681.25 593.75 646.875C621.875 609.375 643.75 568.75 650 521.875C659.375 475 656.25 428.125 640.625 384.375C625 340.625 603.125 300.0000000000001 568.75 268.7500000000001C559.375 259.375 553.125 250.0000000000001 546.875 240.6250000000001L512.5 156.25C509.3749999999999 153.125 506.25 150 503.1249999999999 146.875C499.9999999999999 143.7499999999999 493.7499999999999 143.7499999999999 490.6249999999999 143.7499999999999H256.25C253.125 143.7499999999999 246.875 143.7499999999999 243.75 146.875C240.625 150 237.5 153.125 234.375 156.25L200 240.625C196.875 250 187.5 259.375 178.125 265.625C150 290.625 128.125 321.875 115.625 359.375C100 393.75 93.75 431.25 93.75 468.75zM234.375 68.75C234.375 75 237.5 81.2499999999999 240.625 84.375C246.875 90.625 253.125 93.75 256.25 93.75H490.625C496.8749999999999 93.75 503.1249999999999 90.625 506.25 87.5C509.375 84.375 512.5 78.125 512.5 71.875S509.3749999999999 59.3750000000001 506.25 56.25C503.1249999999999 53.125 496.8749999999999 50 490.625 50L481.2499999999999 28.1250000000001C478.1249999999999 21.8750000000001 471.8749999999999 12.5000000000001 462.4999999999999 9.375C456.25 6.25 446.875 3.125 437.5 3.125H309.375C300 3.125 290.625 6.2500000000001 284.375 9.375C278.125 12.5000000000001 271.875 21.875 265.625 28.1250000000001L256.25 50C250 50 243.75 53.1250000000001 240.625 56.25C237.5 59.375 234.375 65.625 234.375 68.75z" />
    <glyph glyph-name="like-2"
      unicode="&#xEA1C;"
      horiz-adv-x="750" d="M394.375 99.7000000000001C383.75 95.9499999999999 366.25 95.9499999999999 355.625 99.7000000000001C265 130.6374999999999 62.5 259.7 62.5 478.4496875C62.5 575.0121875 140.3125 653.1371875 236.25 653.1371875C293.125 653.1371875 343.4375 625.6371875 375 583.1371875C406.5625 625.6371875 457.1875 653.1371875 513.75 653.1371875C609.6875 653.1371875 687.5 575.0121875 687.5 478.4496875C687.5 259.7 485 130.6374999999999 394.375 99.7000000000001z" />
    <glyph glyph-name="like-outline"
      unicode="&#xEA1D;"
      horiz-adv-x="750" d="M605.365625 394.0875L374.996875 140.6843749999999L144.6290625 394.0875C98.6503125 444.6656250000001 100.5009375 522.4368750000001 148.8334375 570.769375C202.7996875 624.735625 291.6934375 619.8121874999999 339.36875 560.2165625L374.996875 515.683125L410.625 560.2165625C458.3 619.8125 547.19375 624.735625 601.1593750000001 570.769375C649.49375 522.4368750000001 651.34375 444.6656250000001 605.365625 394.0875z" />
    <glyph glyph-name="location"
      unicode="&#xEA1E;"
      horiz-adv-x="1000" d="M500 440.4375A130 130 0 1 1 500 700.4375A130 130 0 0 1 500 440.4375zM150.84375 646.25C232.90625 1007.125 767.5 1006.71875 849.15625 645.875C897.0937499999999 434.21875 765.40625 255.0625 649.9999999999999 144.21875C566.2499999999999 63.375 433.7499999999999 63.375 349.59375 144.21875C234.59375 255.0625 102.9062499999999 434.6249999999999 150.8437499999999 646.3125z" />
    <glyph glyph-name="macos-os"
      unicode="&#xEA1F;"
      horiz-adv-x="750" d="M643.75 228.125C628.125 196.875 621.8750000000001 181.25 603.125 153.1250000000001C578.125 112.5 540.625 62.5000000000001 493.75 62.5000000000001C453.125 62.5000000000001 443.7500000000001 90.6250000000001 387.5 87.5000000000001C331.25 87.5000000000001 321.875 59.3750000000002 278.125 62.5000000000001C231.25 62.5000000000001 196.875 109.3750000000001 171.875 146.8750000000001C96.875 259.3750000000001 90.625 390.6250000000001 134.375 462.5000000000001C165.625 512.5 218.75 540.6250000000001 265.625 540.6250000000001C315.625 540.6250000000001 343.75 512.5 384.375 512.5C425.0000000000001 512.5 446.875 540.6250000000001 503.1250000000001 540.6250000000001C546.875 540.6250000000001 590.6250000000001 518.7500000000001 621.8750000000001 478.1250000000001C518.75 418.75 537.5 268.75 643.75 228.125zM462.5 587.5C484.375 612.5 500 650 493.75 687.5C459.3750000000001 684.375 421.875 662.5 396.8750000000001 637.5C375.0000000000001 612.5 359.3750000000001 575 365.6250000000001 537.5C403.125 537.5 440.625 556.25 462.5 587.5z" />
    <glyph glyph-name="mail"
      unicode="&#xEA20;"
      horiz-adv-x="750" d="M125 625H625C659.375 625 687.5 596.875 687.5 562.5V187.5C687.5 153.125 659.375 125 625 125H125C90.625 125 62.5 153.125 62.5 187.5V562.5C62.5 596.875 90.625 625 125 625M687.5 562.5L375 343.75L62.5 562.5" />
    <glyph glyph-name="mines"
      unicode="&#xEA21;"
      horiz-adv-x="750" d="M0 414.0625H750V335.9375H0V414.0625z" />
    <glyph glyph-name="o-arrow-down-1"
      unicode="&#xEA22;"
      horiz-adv-x="750" d="M374.984375 224.9968749999999C353.109375 224.9968749999999 331.234375 233.434375 314.671875 249.996875L110.9228125 453.745625C101.8603125 462.808125 101.8603125 477.808125 110.9228125 486.870625C119.9853125 495.933125 134.9853125 495.933125 144.0478125 486.870625L347.796875 283.1218750000001C362.796875 268.121875 387.171875 268.121875 402.171875 283.1218750000001L605.921875 486.870625C614.984375 495.933125 629.984375 495.933125 639.046875 486.870625C648.109375 477.808125 648.109375 462.808125 639.046875 453.745625L435.296875 249.996875C418.734375 233.434375 396.859375 224.9968749999999 374.984375 224.9968749999999z" />
    <glyph glyph-name="o-arrow-left-2"
      unicode="&#xEA23;"
      horiz-adv-x="750" d="M468.728125 104.0625C462.790625 104.0625 456.853125 106.25 452.165625 110.9375L248.415625 314.6875C215.290625 347.8125 215.290625 402.1875 248.415625 435.3125L452.165625 639.061875C461.228125 648.124375 476.228125 648.124375 485.290625 639.061875C494.353125 629.999375 494.353125 614.999375 485.290625 605.936875L281.540625 402.1875C266.540625 387.1875 266.540625 362.8125 281.540625 347.8125L485.290625 144.0625C494.353125 135 494.353125 120 485.290625 110.9375C480.603125 106.5625 474.665625 104.0625 468.728125 104.0625z" />
    <glyph glyph-name="o-arrow-right-3"
      unicode="&#xEA24;"
      horiz-adv-x="750" d="M278.4253125 104.0625C272.4878125 104.0625 266.5503125 106.25 261.8628125 110.9375C252.8003125 120 252.8003125 135 261.8628125 144.0625L465.6125 347.8125C480.6125 362.8125 480.6125 387.1875 465.6125 402.1875L261.8628125 605.936875C252.8003125 614.999375 252.8003125 629.999375 261.8628125 639.061875C270.9253125 648.124375 285.9253125 648.124375 294.9878125 639.061875L498.7375 435.3125C514.675 419.375 523.7375 397.8125 523.7375 375C523.7375 352.1875 514.9875000000001 330.625 498.7375 314.6875L294.9878125 110.9375C290.3003125 106.5625 284.3628125 104.0625 278.4253125 104.0625z" />
    <glyph glyph-name="o-arrow-up-2"
      unicode="&#xEA25;"
      horiz-adv-x="750" d="M622.484375 256.246875C616.546875 256.246875 610.609375 258.434375 605.921875 263.121875L402.171875 466.8725C387.171875 481.8725 362.796875 481.8725 347.796875 466.8725L144.0478125 263.121875C134.9853125 254.059375 119.9853125 254.059375 110.9228125 263.121875C101.8603125 272.184375 101.8603125 287.184375 110.9228125 296.2468750000001L314.671875 499.9974999999999C347.796875 533.1225 401.859375 533.1225 435.296875 499.9974999999999L639.046875 296.2468750000001C648.109375 287.184375 648.109375 272.184375 639.046875 263.121875C634.359375 258.746875 628.421875 256.246875 622.484375 256.246875z" />
    <glyph glyph-name="o-star"
      unicode="&#xEA26;"
      horiz-adv-x="750" d="M590.625 43.75L375 150L159.375 43.7500000000001L193.75 281.25L28.125 453.125L262.5 493.75L375 706.25L487.5 493.75L721.875 453.125L556.25 281.25L590.625 43.75zM156.25 412.5L262.5 303.125L240.625 153.125L375 218.75L509.375 153.125L487.5000000000001 303.125L593.75 412.5L446.875 437.5L375 571.875L303.125 437.5L156.25 412.5z" />
    <glyph glyph-name="phone_call"
      unicode="&#xEA27;"
      horiz-adv-x="750" d="M345.3125 282.8125L287.5 225C275.3125 212.8125 255.9375 212.8125 243.4375 224.6874999999999C240 228.1249999999999 236.5625 231.25 233.125 234.6874999999999A887.9375 887.9375 0 0 0 145.9375 336.875C120.3125 372.5 99.6875 408.1249999999999 84.6875 443.4375C70 479.0625 62.5 513.125 62.5 545.625C62.5 566.875 66.25 587.1875 73.75 605.9375C81.25 625 93.125 642.5 109.6875 658.125C129.6875 677.8125 151.5625 687.5 174.6875 687.5C183.4375 687.5 192.1875 685.625 200 681.875C208.125 678.125 215.3125 672.5 220.9375 664.375L293.4375 562.1875C299.0625 554.375 303.1250000000001 547.1875 305.9375000000001 540.3125C308.75 533.75 310.3125000000001 527.1875 310.3125000000001 521.25C310.3125000000001 513.75 308.1250000000001 506.25 303.75 499.0625C299.6875 491.8749999999999 293.75 484.3749999999999 286.25 476.8749999999999L262.5 452.1874999999999C259.0625000000001 448.75 257.5 444.6875 257.5 439.6875C257.5 437.1875 257.8125 435 258.4375 432.5C259.375 430 260.3125 428.125 260.9375 426.25C266.5625 415.9375 276.25 402.5 290 386.25C304.0625 370 319.0625 353.4375 335.3125 336.875C338.4375 333.75 341.875 330.625 345 327.5C357.5 315.3125 357.8125 295.3125 345.3125 282.8125zM686.5625 177.1875A79.375 79.375 0 0 0 678.75 143.1250000000001C673.4374999999999 131.8750000000001 666.5625 121.2500000000001 657.5 111.2500000000001C642.1875 94.3750000000001 625.3124999999999 82.1875000000001 606.25 74.3750000000001C605.9374999999999 74.3750000000001 605.625 74.0625 605.3124999999999 74.0625C586.8749999999999 66.5625000000001 566.8749999999999 62.5 545.3124999999999 62.5C513.4374999999999 62.5 479.3749999999999 70 443.4374999999999 85.3125S371.5624999999999 121.25 335.9374999999999 147.1875C323.7499999999999 156.25 311.5624999999999 165.3125 299.9999999999999 175L402.1874999999999 277.1875000000001C410.9374999999999 270.625 418.7499999999999 265.6250000000001 425.3124999999999 262.1875C426.8749999999999 261.5625000000001 428.7499999999999 260.625 430.9374999999999 259.6875C433.4374999999999 258.7500000000001 435.9374999999999 258.4375000000001 438.7499999999999 258.4375000000001C444.0624999999999 258.4375000000001 448.1249999999999 260.3125000000001 451.5624999999999 263.7500000000001L475.3124999999999 287.1875000000001C483.1249999999999 295.0000000000001 490.6249999999999 300.9375 497.8124999999999 304.6875000000001C504.9999999999999 309.0625000000001 512.1874999999999 311.2500000000001 519.9999999999999 311.2500000000001C525.9375 311.2500000000001 532.1874999999999 310.0000000000001 539.0624999999999 307.1875000000001C545.9374999999999 304.3750000000001 553.1249999999999 300.3125000000001 560.9374999999999 295.0000000000001L664.3749999999998 221.5625C672.4999999999999 215.9375 678.1249999999999 209.375 681.5624999999999 201.5625C684.6874999999999 193.75 686.5624999999999 185.9375 686.5624999999999 177.1874999999999z" />
    <glyph glyph-name="plus"
      unicode="&#xEA28;"
      horiz-adv-x="750" d="M0 414.0625H750V335.9375H0V414.0625zM335.9375 750H414.0625V0H335.9375V750z" />
    <glyph glyph-name="quote"
      unicode="&#xEA29;"
      horiz-adv-x="750" d="M225 0H450L600 300V750H150V300H375L225 0z" />
    <glyph glyph-name="report"
      unicode="&#xEA2A;"
      horiz-adv-x="750" d="M336.0718750000001 641.9128125C358.503125 661.0290625 391.4968750000001 661.0290625 413.928125 641.9128125L452.084375 609.3971875C461.696875 601.2053125 473.646875 596.2546875 486.2375 595.25L536.209375 591.2621875C565.5875 588.9178125 588.91875 565.5884375 591.2625 536.209375L595.25 486.2375C596.25625 473.6478125 601.2062500000001 461.6959375 609.3968749999999 452.0834375L641.9125 413.928125C661.0281249999999 391.4968750000001 661.0281249999999 358.503125 641.9125 336.0718750000001L609.3968749999999 297.9156250000001C601.2062500000001 288.303125 596.25625 276.353125 595.25 263.7625L591.2625 213.790625C588.91875 184.4125 565.5875 161.08125 536.209375 158.7375L486.2375 154.75C473.646875 153.74375 461.696875 148.7937499999999 452.084375 140.6031250000001L413.928125 108.0875C391.4968750000001 88.9718750000001 358.503125 88.9718750000001 336.0718750000001 108.0875L297.9165625 140.6031250000001C288.3040625 148.7937499999999 276.3521875 153.74375 263.7625 154.75L213.790625 158.7375C184.4115625 161.08125 161.0821875 184.4125 158.7378125 213.790625L154.75 263.7625C153.7453125 276.353125 148.7946875 288.303125 140.6028125 297.9156250000001L108.0871875 336.0718750000001C88.9709375 358.503125 88.9709375 391.4968750000001 108.0871875 413.928125L140.6028125 452.0834375C148.7946875 461.6959375 153.7453125 473.6478125 154.75 486.2375L158.7378125 536.209375C161.0821875 565.5884375 184.4115625 588.9178125 213.790625 591.2621875L263.7625 595.25C276.3521875 596.2546875 288.3040625 601.2053125 297.9165625 609.3971875L336.0718750000001 641.9128125zM373.44375 267.2125000000001H376.56875V264.0875H373.44375V267.2125000000001zM375 500L375 437.5V375" />
    <glyph glyph-name="search-normal"
      unicode="&#xEA2B;"
      horiz-adv-x="750" d="M359.375 70.3125C182.8125 70.3125 39.0625 214.0625 39.0625 390.625C39.0625 567.1875 182.8125 710.9375 359.375 710.9375C535.9375 710.9375 679.6875 567.1875 679.6875 390.625C679.6875 214.0625 535.9375 70.3125 359.375 70.3125zM359.375 664.0625C208.4375 664.0625 85.9375 541.25 85.9375 390.625C85.9375 240 208.4375 117.1875 359.375 117.1875C510.3124999999999 117.1875 632.8125 240 632.8125 390.625C632.8125 541.25 510.3124999999999 664.0625 359.375 664.0625zM687.5124999999999 39.065625C681.575 39.065625 675.6375 41.253125 670.95 45.940625L608.45 108.440625C599.3874999999999 117.5031250000001 599.3874999999999 132.5031250000001 608.45 141.5656250000001C617.5125 150.628125 632.5125 150.628125 641.575 141.5656250000001L704.075 79.0656250000001C713.1374999999999 70.0031250000001 713.1374999999999 55.0031250000001 704.075 45.940625C699.3875 41.253125 693.45 39.065625 687.5124999999999 39.065625z" />
    <glyph glyph-name="settings"
      unicode="&#xEA2C;"
      horiz-adv-x="750" d="M281.25 375A93.75 93.75 0 0 1 468.75 375A93.75 93.75 0 0 1 281.25 375M606.25 281.25A51.5625 51.5625 0 0 1 616.5624999999999 224.375L618.4374999999999 222.5A62.5 62.5 0 0 0 618.4374999999999 134.0625A62.5 62.5 0 0 0 529.9999999999998 134.0625L528.1249999999999 135.9374999999999A51.5625 51.5625 0 0 1 471.2499999999998 146.2499999999999A51.5625 51.5625 0 0 1 439.9999999999999 99.0624999999999V93.75A62.5 62.5 0 0 0 377.4999999999999 31.25A62.5 62.5 0 0 0 314.9999999999999 93.75V96.5625A51.5625 51.5625 0 0 1 281.25 143.75A51.5625 51.5625 0 0 1 224.375 133.4375000000001L222.5 131.5625000000001A62.5 62.5 0 0 0 134.0625 131.5625000000001A62.5 62.5 0 0 0 134.0625 220.0000000000002L135.9375 221.8750000000001A51.5625 51.5625 0 0 1 146.25 278.7500000000002A51.5625 51.5625 0 0 1 99.0625 310.0000000000002H93.75A62.5 62.5 0 0 0 31.25 372.5000000000002A62.5 62.5 0 0 0 93.75 435.0000000000002H96.5625A51.5625 51.5625 0 0 1 143.75 468.75A51.5625 51.5625 0 0 1 133.4375 525.625L131.5625 527.5A62.5 62.5 0 0 0 131.5625 615.9375A62.5 62.5 0 0 0 220 615.9375L221.875 614.0625A51.5625 51.5625 0 0 1 278.75 603.75H281.25A51.5625 51.5625 0 0 1 312.5 650.9375V656.25A62.5 62.5 0 0 0 375 718.75A62.5 62.5 0 0 0 437.5 656.25V653.4375A51.5625 51.5625 0 0 1 468.75 606.25A51.5625 51.5625 0 0 1 525.625 616.5625L527.5 618.4375A62.5 62.5 0 0 0 615.9375 618.4375A62.5 62.5 0 0 0 615.9375 530L614.0625000000001 528.125A51.5625 51.5625 0 0 1 603.7500000000001 471.25V468.75A51.5625 51.5625 0 0 1 650.9375000000001 437.5H656.25A62.5 62.5 0 0 0 718.75 375A62.5 62.5 0 0 0 656.25 312.5H653.4375A51.5625 51.5625 0 0 1 606.25 281.25" />
    <glyph glyph-name="skype"
      unicode="&#xEA2D;"
      horiz-adv-x="750" d="M0 610.73375C0 687.65125 62.34875 750 139.26625 750C165.8065625 750 190.674375 742.543125 211.80375 729.61909375C219.063125 730.42815625 226.6 730.97825 234.375 730.97825C353.2906250000001 730.97825 449.728125 634.5625 449.728125 515.625C449.728125 507.863125 449.19375 500.3271875 448.365625 493.03125C461.278125 471.915625 468.75 447.0725 468.75 420.515625C468.75 343.596875 406.38125 281.25 329.484375 281.25C302.925625 281.25 278.076875 288.70625 256.9403125 301.625C249.65625 300.809375 242.1246875 300.271875 234.375 300.271875C115.4384375 300.271875 19.02175 396.6875 19.02175 515.625C19.02175 523.388125 19.55821875 530.921875 20.3748125 538.2059375C7.45525 559.3299999999999 0 584.1790625 0 610.73375zM187.5 562.5C187.5 579.75875 201.49125 593.75 218.75 593.75H246.3115625C261.805625 593.75 275.9703125 584.9959375 282.8996875 571.1371875L310.8503125000001 585.1128125C298.6275 609.5584375 273.6425 625 246.3115625 625H218.75C184.2321875 625 156.25 597.0178125 156.25 562.5C156.25 527.9821875 184.2321875 500 218.75 500H250C267.25875 500 281.25 486.00875 281.25 468.75C281.25 451.49125 267.25875 437.5 250 437.5H222.4384375C206.944375 437.5 192.7796875 446.2540625 185.8503125 460.1128125L157.8996875 446.1371875C170.1225 421.690625 195.1075 406.25 222.4384375 406.25H250C284.5178125000001 406.25 312.5 434.23125 312.5 468.75C312.5 503.2678125 284.5178125000001 531.25 250 531.25H218.75C201.49125 531.25 187.5 545.24125 187.5 562.5z" />
    <glyph glyph-name="spinner"
      unicode="&#xEA2E;"
      horiz-adv-x="750" d="M31.25 375A343.75 343.75 0 0 1 718.75 375A343.75 343.75 0 0 1 31.25 375" />
    <glyph glyph-name="telegram"
      unicode="&#xEA2F;"
      horiz-adv-x="750" d="M375 750C167.90625 750 0 582.09375 0 375S167.90625 0 375 0S750 167.90625 750 375C750 582.09375 582.09375 750 375 750zM559.1875 493.09375L497.6249999999999 203.0937500000001C493.0937499999999 182.53125 480.8437499999999 177.53125 463.7499999999999 187.2187500000001L370 256.2812500000001L324.8125 212.7187500000002C320.4375 207.0937500000002 313.65625 203.5000000000001 306.0625 203.5000000000001C306 203.5000000000001 305.96875 203.5000000000001 305.90625 203.5000000000001L312.5624999999999 298.9375000000001L486.3124999999999 455.8750000000001C493.8124999999999 462.5312500000001 484.6249999999999 466.3125000000001 474.6562499999999 459.6562500000002L260 324.4687500000002L167.5 353.3437500000002C147.5 359.6875000000002 146.9375 373.3437500000002 171.71875 383.1562500000002L533.15625 522.4687500000002C549.96875 528.5937500000002 564.59375 518.4687500000002 559.15625 493.0625000000002z" />
    <glyph glyph-name="test-icon"
      unicode="&#xEA30;"
      horiz-adv-x="0" d="" />
    <glyph glyph-name="user"
      unicode="&#xEA31;"
      horiz-adv-x="750" d="M156.25 93.75C156.25 214.5625 254.1878125 312.5 375 312.5C495.8125 312.5 593.75 214.5625 593.75 93.75M375 406.25C444.034375 406.25 500 462.214375 500 531.25C500 600.285625 444.034375 656.25 375 656.25C305.964375 656.25 250 600.285625 250 531.25C250 462.214375 305.964375 406.25 375 406.25z" />
    <glyph glyph-name="web"
      unicode="&#xEA32;"
      horiz-adv-x="750" d="M512.5 312.5C515.625 334.375 515.625 353.125 515.625 375C515.625 396.875 512.5 415.625 512.5 437.5H618.7499999999999C624.9999999999999 418.75 628.1249999999999 396.875 628.1249999999999 375C628.1249999999999 353.125 624.9999999999999 331.25 618.7499999999999 312.5M456.25 137.5C475 171.875 490.625 209.375 500 250H593.75C562.5 196.875 512.5 159.375 456.25 137.5zM446.875 312.5H303.125C300 334.375 296.875 353.125 296.875 375C296.875 396.875 300 418.75 303.125 437.5H450C453.1249999999999 418.75 456.2499999999999 396.875 456.2499999999999 375C453.125 353.125 450 334.375 446.875 312.5zM375 125C350 162.5 328.125 203.125 315.625 250H434.375C421.875 206.25 400 162.5 375 125zM250 500H159.375C190.625 553.125 237.5 590.625 293.75 612.5C275 578.125 262.5 540.625 250 500zM159.375 250H250C262.5 212.5 275 175 293.75 137.5C237.5 159.375 187.5 196.875 159.375 250zM134.375 312.5C128.125 331.25 125 353.125 125 375C125 396.875 128.125 418.75 134.375 437.5H240.625C237.5 415.625 237.5 396.875 237.5 375C237.5 353.125 240.625 334.375 240.625 312.5M375 625C400 587.5 421.875 546.875 434.375 500H315.6250000000001C328.125 543.75 350 587.5 375 625zM590.625 500H496.8749999999999C487.4999999999999 537.5 471.8749999999999 575 453.1249999999999 612.5C512.5 590.625 562.5 553.125 590.625 500zM375 687.5C203.125 687.5 62.5 546.875 62.5 375C62.5 290.625 96.875 212.5 153.125 153.125C181.25 125 215.625 100 253.1250000000001 84.375C293.75 71.875 334.375 62.5 375 62.5C459.375 62.5 537.5 96.875 596.875 153.125C656.25 212.4999999999999 687.5 290.625 687.5 375C687.5 415.625 678.125 456.2499999999999 662.5 493.7499999999999C646.875 531.25 625 565.625 596.875 596.875C568.7500000000001 625 534.375 650 496.8750000000001 665.625C456.25 678.125 415.625 687.5 375 687.5z" />
    <glyph glyph-name="whatsapp"
      unicode="&#xEA33;"
      horiz-adv-x="750" d="M686.875 393.4375C676.25 574.6875 511.5625000000001 714.375 321.875 683.125C191.25 661.5625 86.5625 555.625 66.25 425C54.375 349.375 70 277.8125 104.0625 218.75L76.25 115.3125C70 91.875 91.5625 70.625 114.6875 77.1875000000001L216.5625 105.3125C262.8125 78.125 316.875 62.5 374.6875 62.5C550.9375 62.5 697.1875000000001 217.8125 686.875 393.4375zM527.5000000000001 258.7500000000001A71.21875 71.21875 0 0 0 491.2500000000001 224.375C481.8750000000001 220.3125 471.5625000000001 218.4375 460.6250000000001 218.4375C444.6875000000001 218.4375 427.5000000000001 222.1875 409.6875000000001 230A286.25 286.25 0 0 0 355.9375000000001 260.9375C337.8125000000001 274.0625 320.9375000000001 288.75 304.6875000000001 304.6875C288.4375000000001 320.9375 274.0625000000001 338.125 260.9375000000001 355.9375C248.1250000000001 373.75 237.8125000000001 391.5625000000001 230.3125000000001 409.3750000000001C222.8125 427.1875000000001 219.0625 444.3750000000001 219.0625 460.6250000000001C219.0625 471.2500000000001 220.9375 481.5625000000001 224.6875 490.9375000000001C228.4375000000001 500.6250000000001 234.375 509.3750000000001 242.8125000000001 517.1875000000001C252.8125 527.1875000000001 263.7500000000001 531.875 275.3125 531.875C279.6875000000001 531.875 284.0625 530.9375 288.125 529.0625000000001C292.1875000000001 527.1875000000001 295.9375 524.375 298.75 520.3125L335 469.0625000000001C337.8125 465 340 461.5625000000001 341.25 458.1250000000001C342.8125 454.6875000000001 343.4375 451.5625000000001 343.4375 448.4375000000001C343.4375 444.6875000000001 342.1875000000001 440.9375000000001 340 437.1875000000001S335 429.6875000000001 331.2500000000001 425.9375000000001L319.375 413.4375000000001C317.5 411.5625000000001 316.875 409.6875000000001 316.875 407.1875000000001C316.875 405.9375000000001 317.1875 404.6875000000001 317.5 403.4375000000001C318.125 402.1875000000001 318.4375 401.2500000000001 318.75 400.3125000000001C321.5625 395.0000000000001 326.5625 388.4375000000001 333.4375 380.3125000000001A421.3125 421.3125 0 0 1 381.25 332.5000000000001C389.375 325.6250000000001 396.25 320.9375000000002 401.5625 318.1250000000001C402.5 317.8125000000001 403.4375 317.1875000000001 404.375 316.8750000000001C405.625 316.2500000000001 406.875 316.2500000000001 408.4375 316.2500000000001C411.25 316.2500000000001 413.125 317.1875000000001 415.0000000000001 319.0625000000001L426.8750000000001 330.9375000000002C430.9375000000001 335.0000000000002 434.6875000000001 337.8125000000002 438.1250000000001 339.6875000000001C441.875 341.8750000000002 445.3125000000001 343.1250000000001 449.375 343.1250000000001C452.5 343.1250000000001 455.625 342.5000000000001 459.0625000000001 340.9375000000001C462.5 339.3750000000001 466.2500000000001 337.5000000000001 470.0000000000001 334.6875000000001L521.875 297.8125000000002C525.9375 295.0000000000002 528.7499999999999 291.5625000000002 530.625 287.8125000000001C532.1875 283.7500000000001 533.125 280.0000000000001 533.125 275.6250000000001C531.25 270.3125000000001 529.9999999999999 264.3750000000001 527.5 258.7500000000002z" />
    <glyph glyph-name="windows-fill"
      unicode="&#xEA34;"
      horiz-adv-x="750" d="M62.5 600L318.75 634.375V387.5H62.5L62.5 600L62.5 600zM62.5 150L318.75 115.625V359.375H62.5L62.5 150zM346.875 109.375L687.5 62.5V356.25H346.875V109.375zM346.875 640.625V390.625H687.5V687.5L346.875 640.625z" />
  </font>
</defs>
</svg>
